<svg xmlns="http://www.w3.org/2000/svg" xmlns:xlink="http://www.w3.org/1999/xlink" width="64" height="64" viewBox="0 0 64 64" fill="none"><path     fill="#FFFFFF"  d="M0 54L0 10C0 4.47715 4.47715 0 10 0L54 0C59.5228 0 64 4.47715 64 10L64 54C64 59.5228 59.5228 64 54 64L10 64C4.47715 64 0 59.5228 0 54Z"></path><path d="M20.5 20L16.5 20L5.5 42L10.5 42L14.8902 33L25.5488 33L29.5 42L33.5 42L39.5 26.5L46.5 42L50.5 42L58.5 20L54.5 20L46.5 40L37.5 20L29.5 40L20.5 20ZM25.1098 32L20.5 21.5L15.378 32L25.1098 32Z" fill-rule="evenodd"  fill="#000000" ></path></svg>