<?xml version="1.0" standalone="no"?><!DOCTYPE svg PUBLIC "-//W3C//DTD SVG 1.1//EN" "http://www.w3.org/Graphics/SVG/1.1/DTD/svg11.dtd"><svg t="1647572162855" class="icon" viewBox="0 0 1024 1024" version="1.1" xmlns="http://www.w3.org/2000/svg" p-id="1427" xmlns:xlink="http://www.w3.org/1999/xlink" width="24" height="24"><defs><style type="text/css">@font-face { font-weight: 400; font-style: normal; font-family: Circular-Loom; src: url("https://cdn.loom.com/assets/fonts/circular/CircularXXWeb-Book-cd7d2bcec649b1243839a15d5eb8f0a3.woff2") format("woff2"); }
@font-face { font-weight: 500; font-style: normal; font-family: Circular-Loom; src: url("https://cdn.loom.com/assets/fonts/circular/CircularXXWeb-Medium-d74eac43c78bd5852478998ce63dceb3.woff2") format("woff2"); }
@font-face { font-weight: 700; font-style: normal; font-family: Circular-Loom; src: url("https://cdn.loom.com/assets/fonts/circular/CircularXXWeb-Bold-83b8ceaf77f49c7cffa44107561909e4.woff2") format("woff2"); }
@font-face { font-weight: 900; font-style: normal; font-family: Circular-Loom; src: url("https://cdn.loom.com/assets/fonts/circular/CircularXXWeb-Black-bf067ecb8aa777ceb6df7d72226febca.woff2") format("woff2"); }
</style></defs><path d="M517.12 460.334545v-116.363636a23.272727 23.272727 0 0 0-46.545455 0v116.363636a93.090909 93.090909 0 0 0 93.09091 93.09091h116.363636a23.272727 23.272727 0 0 0 0-46.545455h-116.363636a39.563636 39.563636 0 0 1-11.869091-1.861818l247.854545-247.854546A23.272727 23.272727 0 0 0 768 224.349091L518.981818 472.203636a39.563636 39.563636 0 0 1-1.861818-11.869091z" p-id="1428" fill="#6f5cf1"></path><path d="M861.090909 395.636364a23.272727 23.272727 0 0 0-23.272727 23.272727v372.363636a46.545455 46.545455 0 0 1-46.545455 46.545455H232.727273a46.545455 46.545455 0 0 1-46.545455-46.545455V232.727273a46.545455 46.545455 0 0 1 46.545455-46.545455h372.363636a23.272727 23.272727 0 0 0 0-46.545454H232.727273a93.090909 93.090909 0 0 0-93.090909 93.090909v558.545454a93.090909 93.090909 0 0 0 93.090909 93.090909h558.545454a93.090909 93.090909 0 0 0 93.090909-93.090909V418.909091a23.272727 23.272727 0 0 0-23.272727-23.272727z" p-id="1429" fill="#6f5cf1"></path></svg>