<svg width="24" height="24" viewBox="0 0 24 24" fill="none" xmlns="http://www.w3.org/2000/svg">
<path fill-rule="evenodd" clip-rule="evenodd" d="M7.99988 1.5C7.99988 0.947716 7.55216 0.5 6.99988 0.5C6.4476 0.5 5.99988 0.947716 5.99988 1.5V2H5C2.79086 2 1 3.79086 1 6V19C1 21.2091 2.79086 23 5 23H19C21.2092 23 23 21.2091 23 19V6C23 3.79086 21.2092 2 19 2H18V1.5C18 0.947716 17.5523 0.5 17 0.5C16.4477 0.5 16 0.947716 16 1.5V2H7.99988V1.5ZM16 4.5V4H7.99988V4.5C7.99988 5.05229 7.55216 5.5 6.99988 5.5C6.4476 5.5 5.99988 5.05229 5.99988 4.5V4H5C3.89543 4 3 4.89543 3 6V6.02234C3.01195 7.11476 3.89974 7.99701 4.9943 8H3L21 8.00001V6C21 4.89543 20.1046 4 19 4H18V4.5C18 5.05229 17.5523 5.5 17 5.5C16.4477 5.5 16 5.05229 16 4.5ZM11.9622 12.4956V12.6675C11.9622 12.9647 11.8601 13.1133 11.656 13.1133C11.6381 13.1133 11.3857 12.9915 10.8987 12.7481C10.4117 12.5046 9.98381 12.3828 9.61499 12.3828C9.49325 12.3828 9.34823 12.4258 9.17993 12.5117C9.01522 12.5977 8.89169 12.7158 8.80933 12.8662C8.73055 13.013 8.69116 13.278 8.69116 13.6611C8.69116 14.4203 8.94898 14.7998 9.4646 14.7998C9.62215 14.7998 9.81909 14.7318 10.0554 14.5957C10.2954 14.4561 10.4332 14.3862 10.469 14.3862C10.7447 14.3862 10.8826 14.696 10.8826 15.3154C10.8826 15.6556 10.8181 15.8955 10.6892 16.0352C10.6319 16.0996 10.5657 16.1318 10.4905 16.1318C10.4153 16.1318 10.2721 16.0907 10.0608 16.0083C9.85311 15.9224 9.70809 15.8794 9.62573 15.8794C9.28198 15.8794 9.02596 15.9582 8.85767 16.1157C8.74308 16.2231 8.68579 16.4469 8.68579 16.7871C8.68579 17.1273 8.73413 17.4585 8.83081 17.7808C8.92749 18.0994 9.0188 18.3447 9.10474 18.5166C9.19426 18.6885 9.23902 18.7762 9.23902 18.7798C9.23902 18.9696 9.05282 19.0645 8.68042 19.0645L8.4978 19.0591H8.30982C7.41821 19.0591 6.85246 19.0215 6.61255 18.9463C6.455 18.8962 6.37622 18.8049 6.37622 18.6724C6.37622 18.5399 6.48723 18.411 6.70923 18.2856C6.93482 18.1603 7.0673 18.0081 7.10669 17.8291C7.12101 17.7611 7.12818 17.0199 7.12818 15.6055C7.12818 14.1875 7.10132 13.3407 7.04761 13.0649C6.99748 12.7892 6.86857 12.5457 6.66089 12.3345C6.45321 12.1196 6.34937 11.9531 6.34937 11.835C6.34937 11.7168 6.44068 11.6434 6.62329 11.6147C6.94556 11.561 7.7548 11.5342 9.05103 11.5342L9.63111 11.5181H10.2112L10.3992 11.5234C11.1046 11.5234 11.52 11.5646 11.6453 11.647C11.8565 11.7866 11.9622 12.0695 11.9622 12.4956ZM14.9646 14.397H14.8626C14.5546 14.397 14.3022 14.5706 14.1052 14.918C13.9119 15.2653 13.8152 15.6807 13.8152 16.1641V16.4648C13.8152 17.0091 13.928 17.4692 14.1536 17.8452C14.3792 18.2212 14.6495 18.4092 14.9646 18.4092H15.0667C15.3424 18.4092 15.5823 18.2695 15.7864 17.9902C15.9941 17.7074 16.0979 17.3314 16.0979 16.8623L16.1087 16.7495L16.114 16.5239V16.4648L16.1087 16.4058V16.293C16.1015 16.2142 16.0979 16.1569 16.0979 16.1211C16.0979 15.6449 15.9851 15.2384 15.7595 14.9019C15.534 14.5653 15.269 14.397 14.9646 14.397ZM14.97 13.6826H15.2385C15.5572 13.6826 15.8849 13.7578 16.2215 13.9082C16.8624 14.1947 17.3028 14.6602 17.5427 15.3047C17.6645 15.6377 17.7254 15.9779 17.7254 16.3252V16.4219C17.7254 16.7943 17.6502 17.1595 17.4998 17.5176C17.3494 17.8757 17.1471 18.1729 16.8928 18.4092C16.3629 18.889 15.7542 19.1289 15.0667 19.1289C15.013 19.1289 14.9593 19.1271 14.9055 19.1235C14.5618 19.1235 14.2234 19.0555 13.8904 18.9194C13.561 18.7798 13.2906 18.5954 13.0794 18.3662C12.6246 17.8649 12.3972 17.2365 12.3972 16.481V16.3897L12.4026 16.2983C12.4062 15.9653 12.4689 15.6359 12.5906 15.3101C12.8269 14.687 13.2602 14.2269 13.8904 13.9297C14.2449 13.765 14.6048 13.6826 14.97 13.6826ZM21 8.00001V6C21 7.10271 20.1075 7.99699 19.0055 8L21 8.00001Z" fill="#353231"/>
</svg>
