<svg xmlns="http://www.w3.org/2000/svg" version="1.1" xmlns:xlink="http://www.w3.org/1999/xlink" xmlns:svgjs="http://svgjs.dev/svgjs" width="32" height="32"><svg width="32" height="32" fill="none">
  <path fill="#336AEA" d="M32 26a6 6 0 0 1-6 6H6a6 6 0 0 1-6-6V6a6 6 0 0 1 6-6h20a6 6 0 0 1 6 6v20Z"></path>
  <path fill="#fff" d="M14 25.375c0 .345-.28.625-.625.625h-6.75A.625.625 0 0 1 6 25.375v-1.75c0-.345.28-.625.625-.625h6.75c.345 0 .625.28.625.625v1.75ZM25.375 11c.345 0 .625-.28.625-.625v-3.75A.625.625 0 0 0 25.375 6H6.625A.625.625 0 0 0 6 6.625v13.75c0 .345.28.625.625.625h6.75c.345 0 .625-.28.625-.625v-1.75c0-.345.28-.625.625-.625h10.75c.345 0 .625-.28.625-.625v-3.75a.625.625 0 0 0-.625-.625h-10.75a.625.625 0 0 1-.625-.625v-.75c0-.345.28-.625.625-.625h10.75Z"></path>
</svg><style>@media (prefers-color-scheme: light) { :root { filter: none; } }
@media (prefers-color-scheme: dark) { :root { filter: none; } }
</style></svg>