<svg width="28px" height="29px" viewBox="0 0 28 29" version="1.1" xmlns="http://www.w3.org/2000/svg" xmlns:xlink="http://www.w3.org/1999/xlink" class="w-5 h-5"><defs><linearGradient id="linearGradient-1" x1="50%" y1="100%" x2="50%" y2="3.061617e-15%"><stop stop-color="#8655D0" offset="0%"/> <stop stop-color="#32258C" offset="100%"/></linearGradient> <linearGradient id="linearGradient-2" x1="75.7911263%" y1="0%" x2="50%" y2="100%"><stop stop-color="#F187FE" offset="0%"/> <stop stop-color="#985ED9" offset="100%"/></linearGradient> <linearGradient id="linearGradient-3" x1="50%" y1="0%" x2="50%" y2="100%"><stop stop-color="#8655D0" offset="0%"/> <stop stop-color="#32258C" offset="100%"/></linearGradient> <linearGradient id="linearGradient-4" x1="50%" y1="0%" x2="50%" y2="100%"><stop stop-color="#8655D0" offset="0%"/> <stop stop-color="#32258C" offset="100%"/></linearGradient> <linearGradient id="linearGradient-5" x1="67.4821749%" y1="0%" x2="50%" y2="100%"><stop stop-color="#F187FE" offset="0%"/> <stop stop-color="#985ED9" offset="100%"/></linearGradient></defs> <g id="Symbols" stroke="none" stroke-width="1" fill="none" fill-rule="evenodd"><g id="Artboard" transform="translate(-10.000000, -11.000000)" fill-rule="nonzero"><g id="Group-4-Copy-2" transform="translate(10.000000, 11.000000)"><g id="Group-4-Copy"><g id="Group-3"><g id="Group-2"><g id="Group" transform="translate(0.000000, 3.965517)"><polygon id="Path-2-Copy" fill="url(#linearGradient-1)" points="15.4503906 6.09454494 24.7074219 6.61948524 28 13.8143019 12.983147 13.8143019"/> <polyline id="Path-3" fill="url(#linearGradient-2)" points="18.6441406 0.179344682 15.2 6.09454494 5.6 24.3781798 20.4691451 24.3781798 24.7074219 6.61948524"/> <polygon id="Path-2" fill="url(#linearGradient-3)" points="0.278515625 16.7726956 16.7097656 16.7726956 20.4915735 24.3781798 3.81015625 24.3781798"/> <ellipse id="Path" fill="#FFFFFF" cx="20" cy="8.93866591" rx="1.6" ry="1.62521198"/></g> <polygon id="Path-4" fill="url(#linearGradient-4)" points="17.4799284 6.21998644 14.245614 3.0383241 13.8849082 0.671669062 18.2834348 4.81653099"/> <polygon id="Path-4-Copy" fill="url(#linearGradient-5)" points="16.4448773 7.97355906 13.2631579 4.52539306 13.2631579 1.48706897 17.4799284 6.21998644"/></g></g></g></g></g></g></svg>