<svg class="w-[120px] mx-auto sm:mx-0" viewBox="0 0 34 34" fill="none" xmlns="http://www.w3.org/2000/svg">
	<path fill-rule="evenodd" clip-rule="evenodd" d="M26.925 21.5406C30.6134 19.6551 33.1385 15.8181 33.1385 11.3914C33.1385 5.10009 28.0384 0 21.7471 0C17.3204 0 13.4834 2.52508 11.5979 6.21347H0V33.1385H26.925V21.5406ZM27.9606 11.3914C27.9606 14.823 25.1787 17.6048 21.7471 17.6048C18.3155 17.6048 15.5337 14.823 15.5337 11.3914C15.5337 7.95975 18.3155 5.17789 21.7471 5.17789C25.1787 5.17789 27.9606 7.95975 27.9606 11.3914ZM10.3558 11.3914L5.17789 11.3914V27.9606H21.7471V22.7827C15.4559 22.7827 10.3558 17.6826 10.3558 11.3914Z" fill="#007DFC"/>
</svg>