<svg width="48" height="48" viewBox="0 0 48 48" fill="none" xmlns="http://www.w3.org/2000/svg">
<path d="M8 17H12V20H8V37H5V10H8V17Z" fill="#0C3EFF"/>
<path d="M22 37H19V20H15V17H19V10H22V37Z" fill="#0C3EFF"/>
<path d="M41 37H31V34H41V37Z" fill="#0C3EFF"/>
<path d="M31 34H28V31H31V34Z" fill="#0C3EFF"/>
<path d="M44 34H41V24H44V34Z" fill="#0C3EFF"/>
<path d="M15 27H12V20H15V27Z" fill="#0C3EFF"/>
<path d="M41 24H31V21H41V24Z" fill="#0C3EFF"/>
<path d="M31 21H28V13H31V21Z" fill="#0C3EFF"/>
<path d="M44 16H41V13H44V16Z" fill="#0C3EFF"/>
<path d="M41 13H31V10H41V13Z" fill="#0C3EFF"/>
</svg>
