<svg width="34" height="34" viewBox="0 0 34 34" fill="none" xmlns="http://www.w3.org/2000/svg">
<g clip-path="url(#clip0_9_54)">
<path d="M19.4969 0H14.5031C2.68281 0 0 2.68281 0 14.5031V19.4969C0 31.3172 2.68281 34 14.5031 34H19.4969C31.3172 34 34 31.3172 34 19.4969V14.5031C34 2.68281 31.3172 0 19.4969 0Z" fill="black"/>
<path d="M19.4969 0H14.5031C2.68281 0 0 2.68281 0 14.5031V19.4969C0 31.3172 2.68281 34 14.5031 34H19.4969C31.3172 34 34 31.3172 34 19.4969V14.5031C34 2.68281 31.3172 0 19.4969 0Z" fill="#60D077"/>
<path d="M6.90625 14.6625V11.475H8.97812C9.03125 11.8203 9.03125 12.0859 9.05781 12.4578C9.23661 12.1008 9.51474 11.8031 9.85875 11.6005C10.2028 11.3979 10.598 11.2989 10.9969 11.3156C11.9 11.3156 12.4844 11.7141 12.75 12.5109C12.9576 12.1334 13.2666 11.8215 13.642 11.6102C14.0175 11.399 14.4446 11.297 14.875 11.3156C16.0703 11.3156 17.0531 11.9266 17.0531 14.0781V22.4984H14.875V14.4766C14.875 13.7063 14.6625 13.2813 14.025 13.2813C13.3875 13.2813 13.0688 13.8922 13.0688 14.9813V22.4984H10.8641V14.5297C10.8641 13.5203 10.5719 13.2813 10.0672 13.2813C9.5625 13.2813 9.11094 13.8922 9.11094 14.9281V22.4984H6.90625V14.6625Z" fill="black"/>
<path d="M24.65 18.8328V18.9922C24.65 20.9844 24.1187 22.6578 21.5687 22.6578C19.0187 22.6578 18.5938 20.9578 18.5938 18.7V14.9281C18.5938 13.1219 19.1781 11.3156 21.675 11.3156C24.1719 11.3156 24.65 13.2813 24.65 14.6359V15.0609H22.4984V14.5828C22.4984 13.7328 22.3391 13.175 21.6484 13.175C20.9578 13.175 20.7719 13.6797 20.7719 14.6094V19.3641C20.7719 20.1344 20.9312 20.825 21.6484 20.825C22.3656 20.825 22.4984 20.2672 22.4984 19.3641V18.8328H24.65Z" fill="black"/>
<path d="M25.8453 22.4984V19.3375H28.05V22.4984H25.8453Z" fill="black"/>
</g>
<defs>
<clipPath id="clip0_9_54">
<rect width="34" height="34" fill="white"/>
</clipPath>
</defs>
</svg>
