<svg width="64" height="64" viewBox="0 0 80 80" fill="none" xmlns="http://www.w3.org/2000/svg" class="Logo__Desktop"><path fill-rule="evenodd" clip-rule="evenodd" d="M23.6376 50.1952C23.6376 46.6372 26.522 43.7528 30.0801 43.7528L33.3335 43.7528L33.3335 36.8147H30.0801C22.6902 36.8147 16.6995 42.8054 16.6995 50.1952C16.6995 57.5851 22.6902 63.5758 30.0801 63.5758C37.4699 63.5758 43.4606 57.5851 43.4606 50.1952L43.4606 50.1775L43.4606 50.1597V50.1419L43.4606 50.1239L43.4606 50.1058L43.4606 50.0877L43.4606 50.0695V50.0511L43.4606 50.0327L43.4606 50.0143L43.4606 49.9957L43.4606 49.977V49.9583V49.9395L43.4606 49.9206L43.4606 49.9016L43.4606 49.8825L43.4606 49.8634L43.4606 49.8442L43.4606 49.8249L43.4606 49.8055L43.4606 49.786L43.4606 49.7665L43.4606 49.7469L43.4606 49.7272L43.4606 49.7074L43.4606 49.6875L43.4606 49.6676L43.4606 49.6476L43.4606 49.6275L43.4606 49.6074L43.4606 49.5872V49.5669L43.4606 49.5465L43.4606 49.5261L43.4606 49.5056V49.485L43.4606 49.4643L43.4606 49.4436L43.4606 49.4228L43.4606 49.4019V49.381L43.4606 49.36L43.4606 49.3389L43.4606 49.3178L43.4606 49.2966L43.4606 49.2753V49.2539L43.4606 49.2325L43.4606 49.2111L43.4606 49.1895L43.4606 49.1679L43.4606 49.1463L43.4606 49.1245L43.4606 49.1028L43.4606 49.0809L43.4606 49.059L43.4606 49.037V49.015L43.4606 48.9929L43.4606 48.9707V48.9485L43.4606 48.9262L43.4606 48.9039L43.4606 48.8815L43.4606 48.8591L43.4606 48.8365L43.4606 48.814L43.4606 48.7914V48.7687L43.4606 48.746L43.4606 48.7232L43.4606 48.7003L43.4606 48.6774L43.4606 48.6545L43.4606 48.6315L43.4606 48.6084L43.4606 48.5853L43.4606 48.5622L43.4606 48.539L43.4606 48.5157L43.4606 48.4924L43.4606 48.4691L43.4606 48.4457L43.4606 48.4222V48.3987V48.3752L43.4606 48.3516L43.4606 48.3279L43.4606 48.3043L43.4606 48.2805L43.4606 48.2567L43.4606 48.2329L43.4606 48.2091L43.4606 48.1851V48.1612L43.4606 48.1372L43.4606 48.1132V48.0891L43.4606 48.065L43.4606 48.0408V48.0166L43.4606 47.9924L43.4606 47.9681V47.9438L43.4606 47.9194L43.4606 47.895L43.4606 47.8706L43.4606 47.8461L43.4606 47.8216V47.7971L43.4606 47.7725L43.4606 47.7479L43.4606 47.7232L43.4606 47.6986L43.4606 47.6739L43.4606 47.6491L43.4606 47.6243L43.4606 47.5995V47.5747V47.5498L43.4606 47.5249L43.4606 47.5L43.4606 47.475L43.4606 47.45L43.4606 47.425L43.4606 47.3999V47.3749L43.4606 47.3498L43.4606 47.3246V47.2995L43.4606 47.2743L43.4606 47.2491L43.4606 47.2239L43.4606 47.1986V47.1733V47.148L43.4606 47.1227V47.0973L43.4606 47.072L43.4606 47.0466L43.4606 47.0212L43.4606 46.9957L43.4606 46.9703L43.4606 46.9448L43.4606 46.9193V46.8938L43.4606 46.8683L43.4606 46.8427L43.4606 46.8172L43.4606 46.7916L43.4606 46.766V46.7404L43.4606 46.7148V46.6891L43.4606 46.6635L43.4606 46.6378L43.4606 46.6121L43.4606 46.5864L43.4606 46.5607L43.4606 46.535L43.4606 46.5093V46.4835L43.4606 46.4578L43.4606 46.432V46.4062L43.4606 46.3805L43.4606 46.3547L43.4606 46.3289L43.4606 46.3031V46.2773V46.2514L43.4606 46.2256L43.4606 46.1998L43.4606 46.174L43.4606 46.1481L43.4606 46.1223L43.4606 46.0964V46.0706L43.4606 46.0447L43.4606 46.0189L43.4606 45.993L43.4606 45.9672L43.4606 45.9413L43.4606 45.9155L43.4606 45.8896L43.4606 45.8637L43.4606 45.8379V45.812L43.4606 45.7862L43.4606 45.7603L43.4606 45.7345L43.4606 45.7087V45.6828L43.4606 45.657L43.4606 45.6312L43.4606 45.6053V45.5795L43.4606 45.5537L43.4606 45.5279L43.4606 45.5021L43.4606 45.4763L43.4606 45.4506L43.4606 45.4248L43.4606 45.399L43.4606 45.3733L43.4606 45.3475L43.4606 45.3218V45.2961V45.2704L43.4606 45.2447L43.4606 45.219L43.4606 45.1933L43.4606 45.1677L43.4606 45.1421L43.4606 45.1164L43.4606 45.0908L43.4606 45.0652L43.4606 45.0397L43.4606 45.0141L43.4606 44.9885L43.4606 44.963L43.4606 44.9375L43.4606 44.912L43.4606 44.8866L43.4606 44.8611L43.4606 44.8357L43.4606 44.8103V44.7849V44.7595L43.4606 44.7342L43.4606 44.7088V44.6835L43.4606 44.6583V44.633L43.4606 44.6078V44.5826L43.4606 44.5574L43.4606 44.5323L43.4606 44.5071L43.4606 44.482V44.457L43.4606 44.4319L43.4606 44.4069L43.4606 44.3819L43.4606 44.357V44.332V44.3071V44.2823L43.4606 44.2574L43.4606 44.2326L43.4606 44.2079L43.4606 44.1831L43.4606 44.1584L43.4606 44.1337L43.4606 44.1091L43.4606 44.0845L43.4606 44.0599V44.0354L43.4606 44.0109L43.4606 43.9864L43.4606 43.962V43.9376L43.4606 43.9133L43.4606 43.8889L43.4606 43.8647L43.4606 43.8404L43.4606 43.8163L43.4606 43.7921L43.4606 43.768L43.4606 43.7439L43.4606 43.7199L43.4606 43.6959L43.4606 43.672L43.4606 43.6481L43.4606 43.6242V43.6004L43.4606 43.5766V43.5529L43.4606 43.5292L43.4606 43.5056L43.4606 43.482L43.4606 43.4585L43.4606 43.435L43.4606 43.4115L43.4606 43.3881V43.3648L43.4606 43.3415L43.4606 43.3182V43.295L43.4606 43.2719L43.4606 43.2488L43.4606 43.2258L43.4606 43.2028L43.4606 43.1798L43.4606 43.1569L43.4606 43.1341L43.4606 43.1113L43.4606 43.0886L43.4606 43.066L43.4606 43.0433L43.4606 43.0208L43.4606 42.9983L43.4606 42.9759L43.4606 42.9535L43.4606 42.9312L43.4606 42.9089L43.4606 42.8867L43.4606 42.8645L43.4606 42.8424L43.4606 42.8204L43.4606 42.7985V42.7766L43.4606 42.7547L43.4606 42.7329L43.4606 42.7112L43.4606 42.6896L43.4606 42.668L43.4606 42.6464L43.4606 42.625L43.4606 42.6036L43.4606 42.5823L43.4606 42.561L43.4606 42.5398L43.4606 42.5187L43.4606 42.4976L43.4606 42.4766L43.4606 42.4557L43.4606 42.4348V42.4141L43.4606 42.3933L43.4606 42.3727V42.3521V42.3316L43.4606 42.3112L43.4606 42.2908L43.4606 42.2706L43.4606 42.2504L43.4606 42.2302V42.2102L43.4606 42.1902L43.4606 42.1703L43.4606 42.1504L43.4606 42.1307L43.4606 42.111L43.4606 42.0914L43.4606 42.0718L43.4606 42.0524V42.033L43.4606 42.0137L43.4606 41.9945V41.9754L43.4606 41.9564V41.9374V41.9185L43.4606 41.8997V41.881L43.4606 41.8623V41.8438L43.4606 41.8253L43.4606 41.8069V41.7886L43.4606 41.7704L43.4606 41.7523V41.7342L43.4606 41.7163L43.4606 41.6984V41.6806L43.4606 41.6629L43.4606 41.6453L43.4606 41.6278L43.4606 41.6104L43.4606 41.5931L43.4606 41.5758L43.4606 41.5587L43.4606 41.5416L43.4606 41.5246L43.4606 41.5078V41.491L43.4606 41.4743L43.4606 41.4577L43.4606 41.4412V41.4248L43.4606 41.4085L43.4606 41.3923V41.3762V41.3602L43.4606 41.3442L43.4606 41.3284L43.4606 41.3127L43.4606 41.2971L43.4606 41.2816L43.4606 41.2661L43.4606 41.2508L43.4606 41.2356V41.2205L43.4606 41.2055L43.4606 41.1905L43.4606 41.1757L43.4606 41.161L43.4606 41.1464L43.4606 41.1319L43.4606 41.1175V41.1032V41.089L43.4606 41.0749V41.061V41.0471L43.4606 41.0334L43.4606 41.0197L43.4606 41.0062L43.4606 40.9927L43.4606 40.9794L43.4606 40.9662L43.4606 40.9531V40.9401L43.4606 40.9272L43.4606 40.9145L43.4606 40.9018L43.4606 40.8893L43.4606 40.8768L43.4606 40.8645L43.4606 40.8523L43.4606 40.8402L43.4606 40.8283L43.4606 40.8164L43.4606 40.8047V40.7931L43.4606 40.7816L43.4606 40.7702L43.4606 40.7589L43.4606 40.7478L43.4606 40.7367L43.4606 40.7258L43.4606 40.7151L43.4606 40.7044L43.4606 40.6938L43.4606 40.6834L43.4606 40.6731L43.4606 40.6629L43.4606 40.6529L43.4606 40.643L43.4606 40.6331L43.4606 40.6235V40.6139L43.4606 40.6045L43.4606 40.5952L43.4606 40.586V40.5769L43.4606 40.568L43.4606 40.5592L43.4606 40.5505L43.4606 40.542V40.5336V40.5253L43.4606 40.5172L43.4606 40.5091L43.4606 40.5013L43.4606 40.4935L43.4606 40.4859L43.4606 40.4784L43.4606 40.471L43.4606 40.4638L43.4606 40.4567L43.4606 40.4498L43.4606 40.4429L43.4606 40.4363L43.4606 40.4297L43.4606 40.4233V40.417V40.4109L43.4606 40.4049V40.399L43.4606 40.3933V40.3877L43.4606 40.3823L43.4606 40.377L43.4606 40.3718L43.4606 40.3668L43.4606 40.3619V40.3572L43.4606 40.3526V40.3482L43.4606 40.3439L43.4606 40.3397L43.4606 40.3357L43.4606 40.3318L43.4606 40.3281L43.4606 40.3245L43.4606 40.3211V40.3178L43.4606 40.3147L43.4606 40.3117L43.4606 40.3088L43.4606 40.3062L43.4606 40.3036L43.4606 40.3012L43.4606 40.299L43.4606 40.2969L43.4606 40.295L43.4606 40.2932L43.4606 40.2915L43.4606 40.2901L43.4606 40.2887L43.4606 40.2876V40.2866L43.4606 40.2857L43.4606 40.285L43.4606 40.2844L43.4606 40.2841L43.4606 40.2838L39.9916 40.2837L36.5226 40.2838L36.5226 40.2841L36.5226 40.2844L36.5226 40.285L36.5226 40.2857L36.5226 40.2866V40.2876L36.5226 40.2887L36.5226 40.2901V40.2915L36.5226 40.2932L36.5226 40.295L36.5226 40.2969L36.5226 40.299L36.5226 40.3012L36.5226 40.3036L36.5226 40.3062L36.5226 40.3088V40.3117L36.5226 40.3147L36.5226 40.3178V40.3211L36.5226 40.3245L36.5226 40.3281L36.5226 40.3318L36.5226 40.3357L36.5226 40.3397L36.5226 40.3439L36.5226 40.3482L36.5226 40.3526L36.5226 40.3572V40.3619L36.5226 40.3668L36.5226 40.3718L36.5226 40.377L36.5226 40.3823L36.5226 40.3877V40.3933L36.5226 40.399V40.4049L36.5226 40.4109L36.5226 40.417V40.4233L36.5226 40.4297L36.5226 40.4363L36.5226 40.4429L36.5226 40.4498L36.5226 40.4567L36.5226 40.4638L36.5226 40.471L36.5226 40.4784L36.5226 40.4859L36.5226 40.4935L36.5226 40.5013L36.5226 40.5091L36.5226 40.5172L36.5226 40.5253L36.5226 40.5336L36.5226 40.542L36.5226 40.5505L36.5226 40.5592L36.5226 40.568L36.5226 40.5769L36.5226 40.586L36.5226 40.5952L36.5226 40.6045L36.5226 40.6139V40.6235L36.5226 40.6331L36.5226 40.643L36.5226 40.6529L36.5226 40.6629L36.5226 40.6731L36.5226 40.6834L36.5226 40.6938L36.5226 40.7044L36.5226 40.7151L36.5226 40.7258L36.5226 40.7367L36.5226 40.7478L36.5226 40.7589L36.5226 40.7702L36.5226 40.7816L36.5226 40.7931V40.8047L36.5226 40.8164L36.5226 40.8283L36.5226 40.8402L36.5226 40.8523L36.5226 40.8645L36.5226 40.8768L36.5226 40.8893L36.5226 40.9018L36.5226 40.9145L36.5226 40.9272L36.5226 40.9401V40.9531L36.5226 40.9662L36.5226 40.9794L36.5226 40.9927L36.5226 41.0062L36.5226 41.0197L36.5226 41.0334L36.5226 41.0471V41.061V41.0749L36.5226 41.089V41.1032V41.1175L36.5226 41.1319L36.5226 41.1464L36.5226 41.161L36.5226 41.1757L36.5226 41.1905L36.5226 41.2055L36.5226 41.2205L36.5226 41.2356L36.5226 41.2508L36.5226 41.2661L36.5226 41.2816L36.5226 41.2971L36.5226 41.3127L36.5226 41.3284L36.5226 41.3442L36.5226 41.3602V41.3762V41.3923L36.5226 41.4085L36.5226 41.4248V41.4412L36.5226 41.4577L36.5226 41.4743L36.5226 41.491V41.5078L36.5226 41.5246L36.5226 41.5416L36.5226 41.5587L36.5226 41.5758L36.5226 41.5931L36.5226 41.6104L36.5226 41.6278L36.5226 41.6453L36.5226 41.6629L36.5226 41.6806V41.6984L36.5226 41.7163L36.5226 41.7342V41.7523L36.5226 41.7704L36.5226 41.7886V41.8069L36.5226 41.8253L36.5226 41.8438V41.8623L36.5226 41.881L36.5226 41.8997L36.5226 41.9185V41.9374V41.9564L36.5226 41.9754V41.9945L36.5226 42.0137L36.5226 42.033L36.5226 42.0524L36.5226 42.0718L36.5226 42.0914L36.5226 42.111L36.5226 42.1307L36.5226 42.1504L36.5226 42.1703L36.5226 42.1902L36.5226 42.2102V42.2302L36.5226 42.2504L36.5226 42.2706L36.5226 42.2908L36.5226 42.3112L36.5226 42.3316V42.3521V42.3727L36.5226 42.3933L36.5226 42.4141V42.4348L36.5226 42.4557L36.5226 42.4766L36.5226 42.4976L36.5226 42.5187L36.5226 42.5398L36.5226 42.561L36.5226 42.5823L36.5226 42.6036L36.5226 42.625L36.5226 42.6464L36.5226 42.668L36.5226 42.6896L36.5226 42.7112L36.5226 42.7329L36.5226 42.7547L36.5226 42.7766V42.7985L36.5226 42.8204L36.5226 42.8424L36.5226 42.8645L36.5226 42.8867L36.5226 42.9089L36.5226 42.9312L36.5226 42.9535L36.5226 42.9759L36.5226 42.9983L36.5226 43.0208L36.5226 43.0433L36.5226 43.066L36.5226 43.0886L36.5226 43.1113L36.5226 43.1341V43.1569L36.5226 43.1798L36.5226 43.2028L36.5226 43.2258L36.5226 43.2488L36.5226 43.2719L36.5226 43.295V43.3182L36.5226 43.3415L36.5226 43.3648L36.5226 43.3881L36.5226 43.4115L36.5226 43.435L36.5226 43.4585L36.5226 43.482L36.5226 43.5056L36.5226 43.5292L36.5226 43.5529V43.5766L36.5226 43.6004V43.6242L36.5226 43.6481L36.5226 43.672L36.5226 43.6959L36.5226 43.7199L36.5226 43.7439L36.5226 43.768L36.5226 43.7921L36.5226 43.8163L36.5226 43.8404L36.5226 43.8647L36.5226 43.8889L36.5226 43.9133L36.5226 43.9376V43.962L36.5226 43.9864L36.5226 44.0109L36.5226 44.0354L36.5226 44.0599L36.5226 44.0845L36.5226 44.1091L36.5226 44.1337L36.5226 44.1584L36.5226 44.1831L36.5226 44.2079L36.5226 44.2326L36.5226 44.2574L36.5226 44.2823L36.5226 44.3071V44.332V44.357L36.5226 44.3819L36.5226 44.4069L36.5226 44.4319L36.5226 44.457L36.5226 44.482L36.5226 44.5071L36.5226 44.5323L36.5226 44.5574L36.5226 44.5826V44.6078L36.5226 44.633V44.6583L36.5226 44.6835V44.7088L36.5226 44.7342L36.5226 44.7595L36.5226 44.7849L36.5226 44.8103L36.5226 44.8357L36.5226 44.8611L36.5226 44.8866L36.5226 44.912L36.5226 44.9375L36.5226 44.963L36.5226 44.9885L36.5226 45.0141L36.5226 45.0397L36.5226 45.0652L36.5226 45.0908L36.5226 45.1164L36.5226 45.1421L36.5226 45.1677L36.5226 45.1933L36.5226 45.219L36.5226 45.2447L36.5226 45.2704V45.2961V45.3218L36.5226 45.3475L36.5226 45.3733L36.5226 45.399L36.5226 45.4248L36.5226 45.4506L36.5226 45.4763L36.5226 45.5021L36.5226 45.5279L36.5226 45.5537L36.5226 45.5795V45.6053L36.5226 45.6312L36.5226 45.657L36.5226 45.6828V45.7087L36.5226 45.7345L36.5226 45.7603L36.5226 45.7862L36.5226 45.812V45.8379L36.5226 45.8637L36.5226 45.8896L36.5226 45.9155L36.5226 45.9413L36.5226 45.9672L36.5226 45.993L36.5226 46.0189V46.0447L36.5226 46.0706V46.0964L36.5226 46.1223L36.5226 46.1481L36.5226 46.174L36.5226 46.1998L36.5226 46.2256L36.5226 46.2514V46.2773V46.3031L36.5226 46.3289L36.5226 46.3547L36.5226 46.3805L36.5226 46.4062V46.432L36.5226 46.4578L36.5226 46.4835V46.5093L36.5226 46.535L36.5226 46.5607L36.5226 46.5864L36.5226 46.6121L36.5226 46.6378L36.5226 46.6635L36.5226 46.6891V46.7148L36.5226 46.7404V46.766L36.5226 46.7916L36.5226 46.8172L36.5226 46.8427L36.5226 46.8683L36.5226 46.8938L36.5226 46.9193L36.5226 46.9448L36.5226 46.9703L36.5226 46.9957L36.5226 47.0212L36.5226 47.0466L36.5226 47.072L36.5226 47.0973V47.1227L36.5226 47.148L36.5226 47.1733V47.1986L36.5226 47.2239L36.5226 47.2491L36.5226 47.2743L36.5226 47.2995V47.3246L36.5226 47.3498L36.5226 47.3749V47.3999L36.5226 47.425L36.5226 47.45L36.5226 47.475V47.5L36.5226 47.5249L36.5226 47.5498V47.5747V47.5995L36.5226 47.6243L36.5226 47.6491L36.5226 47.6739L36.5226 47.6986L36.5226 47.7232L36.5226 47.7479L36.5226 47.7725L36.5226 47.7971V47.8216L36.5226 47.8461L36.5226 47.8706L36.5226 47.895L36.5226 47.9194L36.5226 47.9438L36.5226 47.9681L36.5226 47.9924L36.5226 48.0166V48.0408L36.5226 48.065L36.5226 48.0891V48.1132L36.5226 48.1372L36.5226 48.1612L36.5226 48.1851L36.5226 48.2091L36.5226 48.2329L36.5226 48.2567L36.5226 48.2805L36.5226 48.3043L36.5226 48.3279L36.5226 48.3516L36.5226 48.3752V48.3987V48.4222L36.5226 48.4457L36.5226 48.4691L36.5226 48.4924L36.5226 48.5157L36.5226 48.539L36.5226 48.5622L36.5226 48.5853L36.5226 48.6084L36.5226 48.6315L36.5226 48.6545L36.5226 48.6774L36.5226 48.7003L36.5226 48.7232L36.5226 48.746L36.5226 48.7687V48.7914L36.5226 48.814L36.5226 48.8365L36.5226 48.8591L36.5226 48.8815L36.5226 48.9039L36.5226 48.9262L36.5226 48.9485V48.9707L36.5226 48.9929L36.5226 49.015L36.5226 49.037L36.5226 49.059L36.5226 49.0809L36.5226 49.1028L36.5226 49.1245L36.5226 49.1463L36.5226 49.1679L36.5226 49.1895L36.5226 49.2111L36.5226 49.2325V49.2539V49.2753L36.5226 49.2966L36.5226 49.3178L36.5226 49.3389L36.5226 49.36L36.5226 49.381L36.5226 49.4019L36.5226 49.4228L36.5226 49.4436L36.5226 49.4643L36.5226 49.485V49.5056L36.5226 49.5261L36.5226 49.5465L36.5226 49.5669V49.5872L36.5226 49.6074L36.5226 49.6275L36.5226 49.6476L36.5226 49.6676L36.5226 49.6875L36.5226 49.7074L36.5226 49.7272L36.5226 49.7469L36.5226 49.7665L36.5226 49.786L36.5226 49.8055L36.5226 49.8249L36.5226 49.8442L36.5226 49.8634L36.5226 49.8825L36.5226 49.9016L36.5226 49.9206L36.5226 49.9395V49.9583V49.977V49.9957V50.0143L36.5226 50.0327L36.5226 50.0511V50.0695L36.5226 50.0877V50.1058L36.5226 50.1239L36.5226 50.1419V50.1597L36.5226 50.1775L36.5226 50.1952C36.5226 53.7533 33.6382 56.6377 30.0801 56.6377C26.522 56.6377 23.6376 53.7533 23.6376 50.1952ZM21.3249 50.1952C21.3249 45.3599 25.2447 41.4401 30.0801 41.4401L33.3335 41.4401L33.3335 39.1274H30.0801C23.9675 39.1274 19.0122 44.0826 19.0122 50.1952C19.0122 56.3078 23.9675 61.2631 30.0801 61.2631C36.1927 61.2631 41.1479 56.3078 41.1479 50.1952L41.1479 50.1775L41.1479 50.1597V50.1419L41.1479 50.1239L41.1479 50.1058L41.1479 50.0877L41.1479 50.0695V50.0511L41.1479 50.0327L41.1479 50.0143V49.9957V49.977L41.1479 49.9583V49.9395L41.1479 49.9206L41.1479 49.9016L41.1479 49.8825L41.1479 49.8634L41.1479 49.8442L41.1479 49.8249L41.1479 49.8055L41.1479 49.786L41.1479 49.7665L41.1479 49.7469L41.1479 49.7272L41.1479 49.7074L41.1479 49.6875L41.1479 49.6676L41.1479 49.6476L41.1479 49.6275L41.1479 49.6074L41.1479 49.5872V49.5669L41.1479 49.5465L41.1479 49.5261L41.1479 49.5056V49.485L41.1479 49.4643L41.1479 49.4436L41.1479 49.4228L41.1479 49.4019V49.381L41.1479 49.36L41.1479 49.3389L41.1479 49.3178L41.1479 49.2966L41.1479 49.2753V49.2539L41.1479 49.2325L41.1479 49.2111L41.1479 49.1895L41.1479 49.1679L41.1479 49.1463L41.1479 49.1245L41.1479 49.1028L41.1479 49.0809L41.1479 49.059L41.1479 49.037V49.015L41.1479 48.9929L41.1479 48.9707L41.1479 48.9485L41.1479 48.9262L41.1479 48.9039L41.1479 48.8815L41.1479 48.8591L41.1479 48.8365L41.1479 48.814L41.1479 48.7914V48.7687L41.1479 48.746L41.1479 48.7232L41.1479 48.7003L41.1479 48.6774L41.1479 48.6545L41.1479 48.6315L41.1479 48.6084L41.1479 48.5853L41.1479 48.5622L41.1479 48.539L41.1479 48.5157L41.1479 48.4924L41.1479 48.4691V48.4457L41.1479 48.4222V48.3987V48.3752L41.1479 48.3516L41.1479 48.3279L41.1479 48.3043V48.2805L41.1479 48.2567L41.1479 48.2329L41.1479 48.2091L41.1479 48.1851L41.1479 48.1612L41.1479 48.1372L41.1479 48.1132L41.1479 48.0891L41.1479 48.065L41.1479 48.0408L41.1479 48.0166L41.1479 47.9924L41.1479 47.9681L41.1479 47.9438L41.1479 47.9194L41.1479 47.895L41.1479 47.8706V47.8461L41.1479 47.8216V47.7971L41.1479 47.7725L41.1479 47.7479L41.1479 47.7232L41.1479 47.6986L41.1479 47.6739L41.1479 47.6491L41.1479 47.6243L41.1479 47.5995V47.5747V47.5498L41.1479 47.5249L41.1479 47.5V47.475L41.1479 47.45L41.1479 47.425L41.1479 47.3999L41.1479 47.3749L41.1479 47.3498L41.1479 47.3246V47.2995L41.1479 47.2743L41.1479 47.2491L41.1479 47.2239L41.1479 47.1986L41.1479 47.1733L41.1479 47.148L41.1479 47.1227V47.0973L41.1479 47.072L41.1479 47.0466L41.1479 47.0212L41.1479 46.9957L41.1479 46.9703L41.1479 46.9448L41.1479 46.9193V46.8938L41.1479 46.8683L41.1479 46.8427L41.1479 46.8172L41.1479 46.7916L41.1479 46.766V46.7404L41.1479 46.7148L41.1479 46.6891L41.1479 46.6635L41.1479 46.6378L41.1479 46.6121L41.1479 46.5864L41.1479 46.5607L41.1479 46.535L41.1479 46.5093V46.4835L41.1479 46.4578L41.1479 46.432V46.4062L41.1479 46.3805L41.1479 46.3547L41.1479 46.3289L41.1479 46.3031L41.1479 46.2773V46.2514L41.1479 46.2256L41.1479 46.1998L41.1479 46.174L41.1479 46.1481L41.1479 46.1223L41.1479 46.0964V46.0706L41.1479 46.0447L41.1479 46.0189L41.1479 45.993L41.1479 45.9672L41.1479 45.9413L41.1479 45.9155L41.1479 45.8896L41.1479 45.8637L41.1479 45.8379V45.812L41.1479 45.7862V45.7603L41.1479 45.7345L41.1479 45.7087V45.6828L41.1479 45.657L41.1479 45.6312L41.1479 45.6053L41.1479 45.5795V45.5537L41.1479 45.5279L41.1479 45.5021L41.1479 45.4763L41.1479 45.4506L41.1479 45.4248L41.1479 45.399V45.3733L41.1479 45.3475L41.1479 45.3218L41.1479 45.2961L41.1479 45.2704L41.1479 45.2447L41.1479 45.219L41.1479 45.1933L41.1479 45.1677L41.1479 45.1421L41.1479 45.1164L41.1479 45.0908L41.1479 45.0652L41.1479 45.0397L41.1479 45.0141L41.1479 44.9885L41.1479 44.963L41.1479 44.9375L41.1479 44.912L41.1479 44.8866L41.1479 44.8611L41.1479 44.8357L41.1479 44.8103L41.1479 44.7849V44.7595L41.1479 44.7342L41.1479 44.7088L41.1479 44.6835L41.1479 44.6583L41.1479 44.633L41.1479 44.6078V44.5826L41.1479 44.5574L41.1479 44.5323L41.1479 44.5071L41.1479 44.482L41.1479 44.457L41.1479 44.4319L41.1479 44.4069L41.1479 44.3819L41.1479 44.357V44.332V44.3071V44.2823L41.1479 44.2574L41.1479 44.2326L41.1479 44.2079L41.1479 44.1831L41.1479 44.1584L41.1479 44.1337L41.1479 44.1091L41.1479 44.0845L41.1479 44.0599V44.0354L41.1479 44.0109L41.1479 43.9864L41.1479 43.962L41.1479 43.9376L41.1479 43.9133L41.1479 43.8889L41.1479 43.8647V43.8404L41.1479 43.8163L41.1479 43.7921L41.1479 43.768L41.1479 43.7439L41.1479 43.7199L41.1479 43.6959L41.1479 43.672L41.1479 43.6481L41.1479 43.6242V43.6004L41.1479 43.5766L41.1479 43.5529L41.1479 43.5292L41.1479 43.5056L41.1479 43.482L41.1479 43.4585L41.1479 43.435L41.1479 43.4115L41.1479 43.3881L41.1479 43.3648L41.1479 43.3415L41.1479 43.3182V43.295L41.1479 43.2719L41.1479 43.2488L41.1479 43.2258L41.1479 43.2028L41.1479 43.1798L41.1479 43.1569L41.1479 43.1341L41.1479 43.1113L41.1479 43.0886L41.1479 43.066L41.1479 43.0433L41.1479 43.0208V42.9983L41.1479 42.9759L41.1479 42.9535L41.1479 42.9312L41.1479 42.9089L41.1479 42.8867L41.1479 42.8645L41.1479 42.8424L41.1479 42.8204L41.1479 42.7985V42.7766L41.1479 42.7547L41.1479 42.7329L41.1479 42.7112L41.1479 42.6896L41.1479 42.668L41.1479 42.6464L41.1479 42.625L41.1479 42.6036L41.1479 42.5823L41.1479 42.561L41.1479 42.5398L41.1479 42.5187L41.1479 42.4976L41.1479 42.4766L41.1479 42.4557L41.1479 42.4348V42.4141L41.1479 42.3933L41.1479 42.3727V42.3521V42.3316L41.1479 42.3112L41.1479 42.2908L41.1479 42.2706L41.1479 42.2504L41.1479 42.2302V42.2102L41.1479 42.1902V42.1703L41.1479 42.1504V42.1307L41.1479 42.111L41.1479 42.0914V42.0718L41.1479 42.0524V42.033L41.1479 42.0137L41.1479 41.9945L41.1479 41.9754L41.1479 41.9564V41.9374V41.9185L41.1479 41.8997L41.1479 41.881L41.1479 41.8623L41.1479 41.8438L41.1479 41.8253L41.1479 41.8069V41.7886L41.1479 41.7704L41.1479 41.7523L41.1479 41.7342L41.1479 41.7163L41.1479 41.6984V41.6806L41.1479 41.6629L41.1479 41.6453L41.1479 41.6278L41.1479 41.6104L41.1479 41.5931L41.1479 41.5758L41.1479 41.5587L41.1479 41.5416L41.1479 41.5246V41.5078V41.491L41.1479 41.4743L41.1479 41.4577L41.1479 41.4412V41.4248L41.1479 41.4085L41.1479 41.3923V41.3762V41.3602L41.1479 41.3442L41.1479 41.3284L41.1479 41.3127L41.1479 41.2971L41.1479 41.2816L41.1479 41.2661L41.1479 41.2508L41.1479 41.2356L41.1479 41.2205L41.1479 41.2055L41.1479 41.1905L41.1479 41.1757L41.1479 41.161L41.1479 41.1464L41.1479 41.1319L41.1479 41.1175V41.1032V41.089L41.1479 41.0749V41.061V41.0471L41.1479 41.0334L41.1479 41.0197L41.1479 41.0062L41.1479 40.9927L41.1479 40.9794L41.1479 40.9662L41.1479 40.9531V40.9401L41.1479 40.9272L41.1479 40.9145L41.1479 40.9018L41.1479 40.8893L41.1479 40.8768L41.1479 40.8645V40.8523L41.1479 40.8402L41.1479 40.8283L41.1479 40.8164L41.1479 40.8047V40.7931L41.1479 40.7816L41.1479 40.7702L41.1479 40.7589L41.1479 40.7478L41.1479 40.7367L41.1479 40.7258L41.1479 40.7151L41.1479 40.7044L41.1479 40.6938L41.1479 40.6834L41.1479 40.6731V40.6629V40.6529L41.1479 40.643L41.1479 40.6331L41.1479 40.6235V40.6139L41.1479 40.6045L41.1479 40.5952L41.1479 40.586L41.1479 40.5769L41.1479 40.568L41.1479 40.5592L41.1479 40.5505L41.1479 40.542L41.1479 40.5336L41.1479 40.5253L41.1479 40.5172L41.1479 40.5091L41.1479 40.5013L41.1479 40.4935L41.1479 40.4859L41.1479 40.4784L41.1479 40.471L41.1479 40.4638L41.1479 40.4567L41.1479 40.4498L41.1479 40.4429L41.1479 40.4363L41.1479 40.4297L41.1479 40.4233V40.417L41.1479 40.4109L41.1479 40.4049V40.399L41.1479 40.3933V40.3877L41.1479 40.3823L41.1479 40.377V40.3718L41.1479 40.3668L41.1479 40.3619V40.3572L41.1479 40.3526L41.1479 40.3482L41.1479 40.3439L41.1479 40.3397L41.1479 40.3357L41.1479 40.3318L41.1479 40.3281L41.1479 40.3245L41.1479 40.3211V40.3178L41.1479 40.3147L41.1479 40.3117V40.3088L41.1479 40.3062L41.1479 40.3036L41.1479 40.3012L41.1479 40.299L41.1479 40.2969L41.1479 40.295L41.1479 40.2932L41.1479 40.2915V40.2901L41.1479 40.2887L41.1479 40.2876V40.2866L41.1479 40.2857L41.1479 40.285L41.1479 40.2844L41.1479 40.2841L41.1479 40.2838L39.9916 40.2837L38.8352 40.2838L38.8352 40.2841L38.8352 40.2844L38.8352 40.285L38.8352 40.2857L38.8352 40.2866V40.2876L38.8352 40.2887L38.8352 40.2901L38.8352 40.2915L38.8352 40.2932L38.8352 40.295L38.8352 40.2969L38.8352 40.299L38.8352 40.3012L38.8352 40.3036L38.8352 40.3062L38.8352 40.3088L38.8352 40.3117L38.8352 40.3147L38.8352 40.3178V40.3211L38.8352 40.3245L38.8352 40.3281L38.8352 40.3318L38.8352 40.3357L38.8352 40.3397L38.8352 40.3439L38.8352 40.3482V40.3526L38.8352 40.3572V40.3619L38.8352 40.3668L38.8352 40.3718V40.377L38.8352 40.3823L38.8352 40.3877V40.3933L38.8352 40.399L38.8352 40.4049L38.8352 40.4109V40.417L38.8352 40.4233L38.8352 40.4297L38.8352 40.4363L38.8352 40.4429L38.8352 40.4498L38.8352 40.4567L38.8352 40.4638L38.8352 40.471L38.8352 40.4784L38.8352 40.4859L38.8352 40.4935L38.8352 40.5013L38.8352 40.5091L38.8352 40.5172L38.8352 40.5253V40.5336V40.542L38.8352 40.5505L38.8352 40.5592L38.8352 40.568L38.8352 40.5769L38.8352 40.586L38.8352 40.5952L38.8352 40.6045L38.8352 40.6139L38.8352 40.6235L38.8352 40.6331L38.8352 40.643L38.8352 40.6529L38.8352 40.6629L38.8352 40.6731L38.8352 40.6834L38.8352 40.6938L38.8352 40.7044L38.8352 40.7151L38.8352 40.7258L38.8352 40.7367L38.8352 40.7478L38.8352 40.7589L38.8352 40.7702L38.8352 40.7816L38.8352 40.7931V40.8047L38.8352 40.8164L38.8352 40.8283L38.8352 40.8402L38.8352 40.8523L38.8352 40.8645L38.8352 40.8768L38.8352 40.8893L38.8352 40.9018L38.8352 40.9145L38.8352 40.9272L38.8352 40.9401V40.9531L38.8352 40.9662L38.8352 40.9794L38.8352 40.9927L38.8352 41.0062L38.8352 41.0197L38.8352 41.0334L38.8352 41.0471V41.061V41.0749L38.8352 41.089V41.1032V41.1175L38.8352 41.1319L38.8352 41.1464L38.8352 41.161L38.8352 41.1757L38.8352 41.1905L38.8352 41.2055L38.8352 41.2205V41.2356L38.8352 41.2508L38.8352 41.2661L38.8352 41.2816L38.8352 41.2971L38.8352 41.3127L38.8352 41.3284L38.8352 41.3442L38.8352 41.3602V41.3762V41.3923L38.8352 41.4085L38.8352 41.4248V41.4412L38.8352 41.4577L38.8352 41.4743L38.8352 41.491V41.5078V41.5246L38.8352 41.5416L38.8352 41.5587L38.8352 41.5758L38.8352 41.5931L38.8352 41.6104V41.6278L38.8352 41.6453L38.8352 41.6629L38.8352 41.6806V41.6984L38.8352 41.7163L38.8352 41.7342V41.7523L38.8352 41.7704L38.8352 41.7886V41.8069L38.8352 41.8253L38.8352 41.8438V41.8623L38.8352 41.881V41.8997L38.8352 41.9185V41.9374V41.9564L38.8352 41.9754L38.8352 41.9945L38.8352 42.0137L38.8352 42.033V42.0524L38.8352 42.0718L38.8352 42.0914L38.8352 42.111L38.8352 42.1307V42.1504L38.8352 42.1703V42.1902L38.8352 42.2102L38.8352 42.2302L38.8352 42.2504L38.8352 42.2706L38.8352 42.2908L38.8352 42.3112L38.8352 42.3316V42.3521V42.3727L38.8352 42.3933L38.8352 42.4141V42.4348L38.8352 42.4557L38.8352 42.4766L38.8352 42.4976L38.8352 42.5187L38.8352 42.5398L38.8352 42.561L38.8352 42.5823L38.8352 42.6036L38.8352 42.625L38.8352 42.6464L38.8352 42.668L38.8352 42.6896L38.8352 42.7112L38.8352 42.7329L38.8352 42.7547L38.8352 42.7766L38.8352 42.7985L38.8352 42.8204L38.8352 42.8424L38.8352 42.8645L38.8352 42.8867L38.8352 42.9089L38.8352 42.9312L38.8352 42.9535L38.8352 42.9759L38.8352 42.9983V43.0208L38.8352 43.0433L38.8352 43.066L38.8352 43.0886L38.8352 43.1113V43.1341L38.8352 43.1569L38.8352 43.1798L38.8352 43.2028L38.8352 43.2258L38.8352 43.2488L38.8352 43.2719L38.8352 43.295V43.3182L38.8352 43.3415L38.8352 43.3648L38.8352 43.3881L38.8352 43.4115L38.8352 43.435L38.8352 43.4585L38.8352 43.482L38.8352 43.5056L38.8352 43.5292L38.8352 43.5529V43.5766L38.8352 43.6004V43.6242L38.8352 43.6481L38.8352 43.672V43.6959L38.8352 43.7199L38.8352 43.7439L38.8352 43.768L38.8352 43.7921L38.8352 43.8163L38.8352 43.8404V43.8647L38.8352 43.8889L38.8352 43.9133L38.8352 43.9376L38.8352 43.962L38.8352 43.9864L38.8352 44.0109L38.8352 44.0354L38.8352 44.0599L38.8352 44.0845L38.8352 44.1091L38.8352 44.1337L38.8352 44.1584L38.8352 44.1831L38.8352 44.2079L38.8352 44.2326L38.8352 44.2574L38.8352 44.2823V44.3071V44.332V44.357L38.8352 44.3819L38.8352 44.4069L38.8352 44.4319L38.8352 44.457V44.482L38.8352 44.5071L38.8352 44.5323L38.8352 44.5574L38.8352 44.5826V44.6078L38.8352 44.633L38.8352 44.6583L38.8352 44.6835V44.7088L38.8352 44.7342L38.8352 44.7595V44.7849L38.8352 44.8103L38.8352 44.8357L38.8352 44.8611L38.8352 44.8866L38.8352 44.912L38.8352 44.9375L38.8352 44.963L38.8352 44.9885L38.8352 45.0141L38.8352 45.0397L38.8352 45.0652L38.8352 45.0908L38.8352 45.1164L38.8352 45.1421L38.8352 45.1677L38.8352 45.1933L38.8352 45.219L38.8352 45.2447L38.8352 45.2704V45.2961V45.3218L38.8352 45.3475L38.8352 45.3733L38.8352 45.399L38.8352 45.4248L38.8352 45.4506L38.8352 45.4763L38.8352 45.5021L38.8352 45.5279L38.8352 45.5537V45.5795V45.6053L38.8352 45.6312L38.8352 45.657L38.8352 45.6828L38.8352 45.7087L38.8352 45.7345L38.8352 45.7603V45.7862L38.8352 45.812V45.8379L38.8352 45.8637V45.8896L38.8352 45.9155L38.8352 45.9413L38.8352 45.9672L38.8352 45.993L38.8352 46.0189L38.8352 46.0447L38.8352 46.0706V46.0964L38.8352 46.1223L38.8352 46.1481L38.8352 46.174L38.8352 46.1998L38.8352 46.2256L38.8352 46.2514V46.2773V46.3031L38.8352 46.3289L38.8352 46.3547L38.8352 46.3805L38.8352 46.4062V46.432L38.8352 46.4578L38.8352 46.4835L38.8352 46.5093L38.8352 46.535L38.8352 46.5607L38.8352 46.5864L38.8352 46.6121L38.8352 46.6378L38.8352 46.6635L38.8352 46.6891L38.8352 46.7148L38.8352 46.7404L38.8352 46.766L38.8352 46.7916L38.8352 46.8172L38.8352 46.8427L38.8352 46.8683L38.8352 46.8938V46.9193L38.8352 46.9448L38.8352 46.9703L38.8352 46.9957L38.8352 47.0212L38.8352 47.0466L38.8352 47.072L38.8352 47.0973L38.8352 47.1227L38.8352 47.148L38.8352 47.1733L38.8352 47.1986L38.8352 47.2239L38.8352 47.2491L38.8352 47.2743L38.8352 47.2995V47.3246L38.8352 47.3498L38.8352 47.3749V47.3999L38.8352 47.425L38.8352 47.45L38.8352 47.475V47.5L38.8352 47.5249L38.8352 47.5498V47.5747V47.5995L38.8352 47.6243L38.8352 47.6491L38.8352 47.6739L38.8352 47.6986L38.8352 47.7232L38.8352 47.7479L38.8352 47.7725L38.8352 47.7971V47.8216L38.8352 47.8461L38.8352 47.8706L38.8352 47.895L38.8352 47.9194L38.8352 47.9438L38.8352 47.9681L38.8352 47.9924L38.8352 48.0166L38.8352 48.0408L38.8352 48.065L38.8352 48.0891V48.1132L38.8352 48.1372L38.8352 48.1612V48.1851L38.8352 48.2091L38.8352 48.2329L38.8352 48.2567L38.8352 48.2805L38.8352 48.3043L38.8352 48.3279L38.8352 48.3516L38.8352 48.3752V48.3987V48.4222L38.8352 48.4457V48.4691L38.8352 48.4924L38.8352 48.5157L38.8352 48.539L38.8352 48.5622L38.8352 48.5853L38.8352 48.6084L38.8352 48.6315L38.8352 48.6545L38.8352 48.6774L38.8352 48.7003L38.8352 48.7232L38.8352 48.746L38.8352 48.7687V48.7914L38.8352 48.814L38.8352 48.8365L38.8352 48.8591L38.8352 48.8815L38.8352 48.9039L38.8352 48.9262L38.8352 48.9485V48.9707L38.8352 48.9929L38.8352 49.015L38.8352 49.037L38.8352 49.059L38.8352 49.0809L38.8352 49.1028L38.8352 49.1245L38.8352 49.1463L38.8352 49.1679L38.8352 49.1895L38.8352 49.2111L38.8352 49.2325L38.8352 49.2539V49.2753L38.8352 49.2966L38.8352 49.3178L38.8352 49.3389L38.8352 49.36L38.8352 49.381L38.8352 49.4019L38.8352 49.4228L38.8352 49.4436L38.8352 49.4643L38.8352 49.485V49.5056L38.8352 49.5261L38.8352 49.5465L38.8352 49.5669V49.5872L38.8352 49.6074L38.8352 49.6275L38.8352 49.6476L38.8352 49.6676L38.8352 49.6875V49.7074L38.8352 49.7272L38.8352 49.7469L38.8352 49.7665L38.8352 49.786L38.8352 49.8055L38.8352 49.8249L38.8352 49.8442L38.8352 49.8634L38.8352 49.8825L38.8352 49.9016L38.8352 49.9206L38.8352 49.9395V49.9583L38.8352 49.977V49.9957V50.0143L38.8352 50.0327L38.8352 50.0511V50.0695L38.8352 50.0877L38.8352 50.1058L38.8352 50.1239L38.8352 50.1419V50.1597L38.8352 50.1775L38.8352 50.1952C38.8352 55.0306 34.9154 58.9504 30.0801 58.9504C25.2447 58.9504 21.3249 55.0306 21.3249 50.1952Z" fill="url(#paint0_linear_738_1899)"/><path fill-rule="evenodd" clip-rule="evenodd" d="M56.3633 30.3891C56.3633 33.9472 53.4789 36.8316 49.9208 36.8316L47.0178 36.8316L47.0178 43.7697L49.9208 43.7697C57.3107 43.7697 63.3014 37.779 63.3014 30.3891C63.3014 22.9993 57.3107 17.0086 49.9208 17.0086C42.531 17.0086 36.5403 22.9993 36.5403 30.3891L36.5403 30.4068L36.5403 30.4246V30.4425L36.5403 30.4605L36.5403 30.4786V30.4967L36.5403 30.5149L36.5403 30.5332L36.5403 30.5516L36.5403 30.5701L36.5403 30.5887L36.5403 30.6074L36.5403 30.6261V30.6449L36.5403 30.6638L36.5403 30.6828L36.5403 30.7019L36.5403 30.721V30.7402L36.5403 30.7595L36.5403 30.7789L36.5403 30.7984L36.5403 30.8179L36.5403 30.8375L36.5403 30.8572L36.5403 30.877L36.5403 30.8968L36.5403 30.9168L36.5403 30.9368L36.5403 30.9568L36.5403 30.977L36.5403 30.9972V31.0175V31.0379L36.5403 31.0583L36.5403 31.0788L36.5403 31.0994L36.5403 31.1201L36.5403 31.1408V31.1616L36.5403 31.1825V31.2034L36.5403 31.2244L36.5403 31.2455L36.5403 31.2666L36.5403 31.2878L36.5403 31.3091L36.5403 31.3304L36.5403 31.3518L36.5403 31.3733L36.5403 31.3948V31.4164L36.5403 31.4381L36.5403 31.4598L36.5403 31.4816L36.5403 31.5035L36.5403 31.5254L36.5403 31.5474L36.5403 31.5694L36.5403 31.5915L36.5403 31.6137L36.5403 31.6359L36.5403 31.6582L36.5403 31.6805L36.5403 31.7029L36.5403 31.7253L36.5403 31.7478L36.5403 31.7704L36.5403 31.793V31.8157L36.5403 31.8384V31.8612L36.5403 31.884L36.5403 31.9069L36.5403 31.9299L36.5403 31.9529V31.9759L36.5403 31.999L36.5403 32.0222L36.5403 32.0454L36.5403 32.0687L36.5403 32.092L36.5403 32.1153L36.5403 32.1387L36.5403 32.1622L36.5403 32.1857L36.5403 32.2092L36.5403 32.2328V32.2564V32.2801V32.3039L36.5403 32.3276L36.5403 32.3515L36.5403 32.3753L36.5403 32.3992L36.5403 32.4232L36.5403 32.4472L36.5403 32.4712V32.4953L36.5403 32.5194L36.5403 32.5436L36.5403 32.5678L36.5403 32.592L36.5403 32.6163L36.5403 32.6406L36.5403 32.665L36.5403 32.6894L36.5403 32.7138L36.5403 32.7383L36.5403 32.7628V32.7873V32.8119L36.5403 32.8365L36.5403 32.8611L36.5403 32.8858L36.5403 32.9105V32.9353V32.9601L36.5403 32.9849V33.0097L36.5403 33.0346L36.5403 33.0595V33.0844V33.1094L36.5403 33.1344L36.5403 33.1594L36.5403 33.1844L36.5403 33.2095L36.5403 33.2346L36.5403 33.2597V33.2849V33.3101L36.5403 33.3353L36.5403 33.3605L36.5403 33.3858L36.5403 33.4111L36.5403 33.4364L36.5403 33.4617V33.487L36.5403 33.5124L36.5403 33.5378L36.5403 33.5632L36.5403 33.5886L36.5403 33.6141L36.5403 33.6396L36.5403 33.6651L36.5403 33.6906L36.5403 33.7161V33.7416L36.5403 33.7672L36.5403 33.7928L36.5403 33.8184V33.844L36.5403 33.8696L36.5403 33.8953L36.5403 33.9209L36.5403 33.9466L36.5403 33.9723L36.5403 33.998L36.5403 34.0237L36.5403 34.0494L36.5403 34.0751L36.5403 34.1009L36.5403 34.1266V34.1524V34.1781L36.5403 34.2039L36.5403 34.2297L36.5403 34.2555L36.5403 34.2813V34.3071L36.5403 34.3329V34.3588L36.5403 34.3846L36.5403 34.4104L36.5403 34.4363V34.4621L36.5403 34.4879V34.5138L36.5403 34.5396V34.5655L36.5403 34.5914L36.5403 34.6172L36.5403 34.6431L36.5403 34.6689L36.5403 34.6948V34.7206L36.5403 34.7465V34.7723L36.5403 34.7982V34.824V34.8499V34.8757V34.9016V34.9274V34.9532L36.5403 34.979L36.5403 35.0049V35.0307L36.5403 35.0565L36.5403 35.0823L36.5403 35.1081V35.1338V35.1596L36.5403 35.1854V35.2111L36.5403 35.2368V35.2626V35.2883V35.314L36.5403 35.3397L36.5403 35.3654L36.5403 35.391V35.4167L36.5403 35.4423L36.5403 35.468V35.4936L36.5403 35.5192L36.5403 35.5447L36.5403 35.5703L36.5403 35.5958L36.5403 35.6214L36.5403 35.6469V35.6724L36.5403 35.6978L36.5403 35.7233L36.5403 35.7487L36.5403 35.7741L36.5403 35.7995V35.8249V35.8502L36.5403 35.8755L36.5403 35.9008L36.5403 35.9261V35.9514L36.5403 35.9766V36.0018L36.5403 36.027L36.5403 36.0521L36.5403 36.0773L36.5403 36.1023L36.5403 36.1274L36.5403 36.1525L36.5403 36.1775L36.5403 36.2025L36.5403 36.2274L36.5403 36.2524V36.2773L36.5403 36.3021L36.5403 36.327L36.5403 36.3518L36.5403 36.3765L36.5403 36.4013L36.5403 36.426L36.5403 36.4507L36.5403 36.4753L36.5403 36.4999L36.5403 36.5245L36.5403 36.549L36.5403 36.5735L36.5403 36.598L36.5403 36.6224L36.5403 36.6468L36.5403 36.6711L36.5403 36.6954L36.5403 36.7197V36.7439L36.5403 36.7681L36.5403 36.7923L36.5403 36.8164L36.5403 36.8405L36.5403 36.8645L36.5403 36.8885V36.9124L36.5403 36.9363L36.5403 36.9602L36.5403 36.984L36.5403 37.0078L36.5403 37.0315L36.5403 37.0552L36.5403 37.0788L36.5403 37.1024L36.5403 37.1259L36.5403 37.1494L36.5403 37.1729L36.5403 37.1963V37.2196V37.2429L36.5403 37.2661L36.5403 37.2893V37.3125L36.5403 37.3356L36.5403 37.3586V37.3816L36.5403 37.4045L36.5403 37.4274L36.5403 37.4503L36.5403 37.473L36.5403 37.4958V37.5184L36.5403 37.541L36.5403 37.5636V37.5861L36.5403 37.6085L36.5403 37.6309L36.5403 37.6532L36.5403 37.6755L36.5403 37.6977V37.7198L36.5403 37.7419L36.5403 37.764L36.5403 37.7859L36.5403 37.8078L36.5403 37.8297L36.5403 37.8515V37.8732L36.5403 37.8948L36.5403 37.9164L36.5403 37.9379L36.5403 37.9594L36.5403 37.9808L36.5403 38.0021L36.5403 38.0234L36.5403 38.0446L36.5403 38.0657L36.5403 38.0868L36.5403 38.1078L36.5403 38.1287L36.5403 38.1495L36.5403 38.1703V38.191V38.2117V38.2323V38.2528L36.5403 38.2732L36.5403 38.2935L36.5403 38.3138L36.5403 38.334L36.5403 38.3542L36.5403 38.3742V38.3942L36.5403 38.4141L36.5403 38.434L36.5403 38.4537L36.5403 38.4734L36.5403 38.493V38.5125L36.5403 38.532V38.5514L36.5403 38.5706L36.5403 38.5899L36.5403 38.609L36.5403 38.628L36.5403 38.647L36.5403 38.6659L36.5403 38.6847V38.7034L36.5403 38.722L36.5403 38.7406V38.7591L36.5403 38.7775L36.5403 38.7958L36.5403 38.814L36.5403 38.8321L36.5403 38.8501V38.8681L36.5403 38.886V38.9038L36.5403 38.9214L36.5403 38.939L36.5403 38.9566L36.5403 38.974L36.5403 38.9913V39.0086L36.5403 39.0257L36.5403 39.0428L36.5403 39.0597V39.0766V39.0934L36.5403 39.1101L36.5403 39.1267L36.5403 39.1432L36.5403 39.1596L36.5403 39.1759L36.5403 39.1921L36.5403 39.2082V39.2242L36.5403 39.2401L36.5403 39.256L36.5403 39.2717L36.5403 39.2873L36.5403 39.3028L36.5403 39.3182L36.5403 39.3336L36.5403 39.3488L36.5403 39.3639L36.5403 39.3789L36.5403 39.3938L36.5403 39.4087L36.5403 39.4234L36.5403 39.438L36.5403 39.4525V39.4669V39.4812V39.4954V39.5094L36.5403 39.5234V39.5373L36.5403 39.551V39.5647L36.5403 39.5782V39.5916L36.5403 39.605L36.5403 39.6182L36.5403 39.6313L36.5403 39.6443L36.5403 39.6572L36.5403 39.6699L36.5403 39.6826L36.5403 39.6951L36.5403 39.7075L36.5403 39.7199V39.7321L36.5403 39.7441L36.5403 39.7561L36.5403 39.768V39.7797V39.7913L36.5403 39.8028L36.5403 39.8142V39.8255L36.5403 39.8366L36.5403 39.8476L36.5403 39.8585V39.8693V39.88V39.8905L36.5403 39.901L36.5403 39.9113V39.9214L36.5403 39.9315V39.9414L36.5403 39.9512L36.5403 39.9609L36.5403 39.9705L36.5403 39.9799L36.5403 39.9892L36.5403 39.9984V40.0075V40.0164L36.5403 40.0252V40.0338L36.5403 40.0424L36.5403 40.0508V40.0591L36.5403 40.0672L36.5403 40.0752L36.5403 40.0831L36.5403 40.0909L36.5403 40.0985V40.106V40.1134L36.5403 40.1206L36.5403 40.1277V40.1346L36.5403 40.1414L36.5403 40.1481L36.5403 40.1547V40.1611L36.5403 40.1674L36.5403 40.1735L36.5403 40.1795L36.5403 40.1854V40.1911V40.1967L36.5403 40.2021L36.5403 40.2074V40.2126L36.5403 40.2176L36.5403 40.2225L36.5403 40.2272L36.5403 40.2318L36.5403 40.2362L36.5403 40.2405L36.5403 40.2447L36.5403 40.2487L36.5403 40.2526L36.5403 40.2563L36.5403 40.2599L36.5403 40.2633L36.5403 40.2666V40.2697V40.2727L36.5403 40.2755L36.5403 40.2782L36.5403 40.2808L36.5403 40.2832L36.5403 40.2854L36.5403 40.2875L36.5403 40.2894L36.5403 40.2912L36.5403 40.2928V40.2943L36.5403 40.2956L36.5403 40.2968L36.5403 40.2978L36.5403 40.2987L36.5403 40.2994L36.5403 40.2999L36.5403 40.3003L36.5403 40.3006L40.0093 40.3006L43.4784 40.3006L43.4784 40.3003L43.4784 40.2999L43.4784 40.2994L43.4784 40.2987L43.4784 40.2978L43.4784 40.2968L43.4784 40.2956L43.4784 40.2943V40.2928L43.4784 40.2912L43.4784 40.2894L43.4784 40.2875L43.4784 40.2854L43.4784 40.2832L43.4784 40.2808L43.4784 40.2782L43.4784 40.2755L43.4784 40.2727V40.2697V40.2666L43.4784 40.2633L43.4784 40.2599L43.4784 40.2563L43.4784 40.2526V40.2487L43.4784 40.2447L43.4784 40.2405L43.4784 40.2362L43.4784 40.2318L43.4784 40.2272L43.4784 40.2225L43.4784 40.2176L43.4784 40.2126V40.2074L43.4784 40.2021L43.4784 40.1967V40.1911L43.4784 40.1854L43.4784 40.1795L43.4784 40.1735V40.1674V40.1611V40.1547L43.4784 40.1481L43.4784 40.1414L43.4784 40.1346L43.4784 40.1277L43.4784 40.1206L43.4784 40.1134V40.106V40.0985L43.4784 40.0909L43.4784 40.0831L43.4784 40.0752V40.0672L43.4784 40.0591V40.0508L43.4784 40.0424L43.4784 40.0338V40.0252L43.4784 40.0164L43.4784 40.0075V39.9984L43.4784 39.9892L43.4784 39.9799L43.4784 39.9705V39.9609L43.4784 39.9512L43.4784 39.9414V39.9315L43.4784 39.9214L43.4784 39.9113L43.4784 39.901L43.4784 39.8905V39.88V39.8693V39.8585L43.4784 39.8476L43.4784 39.8366L43.4784 39.8255L43.4784 39.8142L43.4784 39.8028L43.4784 39.7913L43.4784 39.7797V39.768L43.4784 39.7561L43.4784 39.7441L43.4784 39.7321V39.7199L43.4784 39.7075L43.4784 39.6951L43.4784 39.6826L43.4784 39.6699L43.4784 39.6572L43.4784 39.6443L43.4784 39.6313L43.4784 39.6182L43.4784 39.605L43.4784 39.5916V39.5782L43.4784 39.5647V39.551L43.4784 39.5373L43.4784 39.5234L43.4784 39.5094V39.4954V39.4812V39.4669V39.4525L43.4784 39.438V39.4234L43.4784 39.4087L43.4784 39.3938L43.4784 39.3789L43.4784 39.3639L43.4784 39.3488L43.4784 39.3336L43.4784 39.3182L43.4784 39.3028L43.4784 39.2873L43.4784 39.2717L43.4784 39.256L43.4784 39.2401L43.4784 39.2242L43.4784 39.2082L43.4784 39.1921L43.4784 39.1759L43.4784 39.1596L43.4784 39.1432L43.4784 39.1267L43.4784 39.1101L43.4784 39.0934L43.4784 39.0766L43.4784 39.0597L43.4784 39.0428L43.4784 39.0257L43.4784 39.0086L43.4784 38.9913L43.4784 38.974L43.4784 38.9566L43.4784 38.939L43.4784 38.9214L43.4784 38.9038L43.4784 38.886L43.4784 38.8681L43.4784 38.8501L43.4784 38.8321L43.4784 38.814L43.4784 38.7958L43.4784 38.7775L43.4784 38.7591V38.7406L43.4784 38.722L43.4784 38.7034V38.6847L43.4784 38.6659L43.4784 38.647L43.4784 38.628L43.4784 38.609L43.4784 38.5899L43.4784 38.5706L43.4784 38.5514V38.532L43.4784 38.5125V38.493L43.4784 38.4734L43.4784 38.4537L43.4784 38.434L43.4784 38.4141L43.4784 38.3942V38.3742L43.4784 38.3542L43.4784 38.334L43.4784 38.3138L43.4784 38.2935L43.4784 38.2732L43.4784 38.2528L43.4784 38.2323V38.2117L43.4784 38.191V38.1703L43.4784 38.1495L43.4784 38.1287L43.4784 38.1078L43.4784 38.0868L43.4784 38.0657L43.4784 38.0446L43.4784 38.0234L43.4784 38.0021L43.4784 37.9808L43.4784 37.9594L43.4784 37.9379V37.9164L43.4784 37.8948L43.4784 37.8732L43.4784 37.8515L43.4784 37.8297L43.4784 37.8078L43.4784 37.7859L43.4784 37.764L43.4784 37.7419L43.4784 37.7198V37.6977L43.4784 37.6755L43.4784 37.6532L43.4784 37.6309L43.4784 37.6085L43.4784 37.5861V37.5636L43.4784 37.541L43.4784 37.5184V37.4958L43.4784 37.473L43.4784 37.4503L43.4784 37.4274L43.4784 37.4045L43.4784 37.3816V37.3586L43.4784 37.3356L43.4784 37.3125V37.2893V37.2661L43.4784 37.2429V37.2196V37.1963L43.4784 37.1729L43.4784 37.1494L43.4784 37.1259L43.4784 37.1024L43.4784 37.0788L43.4784 37.0552L43.4784 37.0315L43.4784 37.0078L43.4784 36.984L43.4784 36.9602V36.9363L43.4784 36.9124V36.8885L43.4784 36.8645L43.4784 36.8405L43.4784 36.8164L43.4784 36.7923L43.4784 36.7681L43.4784 36.7439V36.7197L43.4784 36.6954L43.4784 36.6711L43.4784 36.6468L43.4784 36.6224L43.4784 36.598L43.4784 36.5735L43.4784 36.549L43.4784 36.5245L43.4784 36.4999L43.4784 36.4753L43.4784 36.4507L43.4784 36.426V36.4013L43.4784 36.3765L43.4784 36.3518L43.4784 36.327L43.4784 36.3021V36.2773V36.2524V36.2274L43.4784 36.2025L43.4784 36.1775L43.4784 36.1525L43.4784 36.1274L43.4784 36.1023L43.4784 36.0773L43.4784 36.0521L43.4784 36.027L43.4784 36.0018L43.4784 35.9766L43.4784 35.9514V35.9261L43.4784 35.9008L43.4784 35.8755L43.4784 35.8502V35.8249V35.7995L43.4784 35.7741L43.4784 35.7487L43.4784 35.7233L43.4784 35.6978L43.4784 35.6724V35.6469L43.4784 35.6214L43.4784 35.5958L43.4784 35.5703L43.4784 35.5447L43.4784 35.5192L43.4784 35.4936L43.4784 35.468L43.4784 35.4423L43.4784 35.4167V35.391L43.4784 35.3654L43.4784 35.3397L43.4784 35.314V35.2883L43.4784 35.2626L43.4784 35.2368L43.4784 35.2111V35.1854L43.4784 35.1596V35.1338V35.1081L43.4784 35.0823L43.4784 35.0565L43.4784 35.0307V35.0049L43.4784 34.979L43.4784 34.9532L43.4784 34.9274L43.4784 34.9016V34.8757V34.8499V34.824V34.7982L43.4784 34.7723L43.4784 34.7465L43.4784 34.7206V34.6948L43.4784 34.6689L43.4784 34.6431L43.4784 34.6172L43.4784 34.5914L43.4784 34.5655V34.5396L43.4784 34.5138L43.4784 34.4879L43.4784 34.4621V34.4363L43.4784 34.4104L43.4784 34.3846L43.4784 34.3588V34.3329L43.4784 34.3071V34.2813L43.4784 34.2555L43.4784 34.2297L43.4784 34.2039L43.4784 34.1781V34.1524V34.1266L43.4784 34.1009L43.4784 34.0751L43.4784 34.0494L43.4784 34.0237L43.4784 33.998L43.4784 33.9723L43.4784 33.9466L43.4784 33.9209L43.4784 33.8953L43.4784 33.8696L43.4784 33.844V33.8184L43.4784 33.7928L43.4784 33.7672L43.4784 33.7416V33.7161L43.4784 33.6906V33.6651V33.6396V33.6141L43.4784 33.5886L43.4784 33.5632L43.4784 33.5378L43.4784 33.5124L43.4784 33.487L43.4784 33.4617L43.4784 33.4364L43.4784 33.4111L43.4784 33.3858L43.4784 33.3605L43.4784 33.3353L43.4784 33.3101V33.2849V33.2597L43.4784 33.2346L43.4784 33.2095L43.4784 33.1844L43.4784 33.1594L43.4784 33.1344L43.4784 33.1094V33.0844V33.0595L43.4784 33.0346L43.4784 33.0097V32.9849L43.4784 32.9601L43.4784 32.9353L43.4784 32.9105L43.4784 32.8858L43.4784 32.8611L43.4784 32.8365L43.4784 32.8119L43.4784 32.7873L43.4784 32.7628L43.4784 32.7383L43.4784 32.7138V32.6894L43.4784 32.665L43.4784 32.6406V32.6163L43.4784 32.592L43.4784 32.5678L43.4784 32.5436L43.4784 32.5194L43.4784 32.4953L43.4784 32.4712L43.4784 32.4472L43.4784 32.4232V32.3992L43.4784 32.3753L43.4784 32.3515L43.4784 32.3276L43.4784 32.3039V32.2801V32.2564V32.2328L43.4784 32.2092L43.4784 32.1857L43.4784 32.1622L43.4784 32.1387L43.4784 32.1153L43.4784 32.092L43.4784 32.0687L43.4784 32.0454L43.4784 32.0222V31.999L43.4784 31.9759L43.4784 31.9529L43.4784 31.9299L43.4784 31.9069L43.4784 31.884V31.8612V31.8384L43.4784 31.8157V31.793L43.4784 31.7704L43.4784 31.7478L43.4784 31.7253L43.4784 31.7029L43.4784 31.6805L43.4784 31.6582L43.4784 31.6359L43.4784 31.6137L43.4784 31.5915L43.4784 31.5694L43.4784 31.5474L43.4784 31.5254L43.4784 31.5035L43.4784 31.4816L43.4784 31.4598L43.4784 31.4381L43.4784 31.4164V31.3948L43.4784 31.3733L43.4784 31.3518L43.4784 31.3304L43.4784 31.3091L43.4784 31.2878L43.4784 31.2666L43.4784 31.2455L43.4784 31.2244L43.4784 31.2034V31.1825L43.4784 31.1616L43.4784 31.1408L43.4784 31.1201L43.4784 31.0994V31.0788V31.0583L43.4784 31.0379L43.4784 31.0175V30.9972L43.4784 30.977L43.4784 30.9568L43.4784 30.9368L43.4784 30.9168L43.4784 30.8968L43.4784 30.877L43.4784 30.8572L43.4784 30.8375L43.4784 30.8179L43.4784 30.7984L43.4784 30.7789L43.4784 30.7595L43.4784 30.7402L43.4784 30.721L43.4784 30.7019L43.4784 30.6828V30.6638L43.4784 30.6449V30.6261L43.4784 30.6074L43.4784 30.5887L43.4784 30.5701L43.4784 30.5516L43.4784 30.5332L43.4784 30.5149L43.4784 30.4967V30.4786L43.4784 30.4605L43.4784 30.4425V30.4246L43.4784 30.4068L43.4784 30.3891C43.4784 26.8311 46.3628 23.9467 49.9208 23.9467C53.4789 23.9467 56.3633 26.8311 56.3633 30.3891ZM58.676 30.3891C58.676 35.2245 54.7562 39.1443 49.9208 39.1443L47.0178 39.1443L47.0178 41.457L49.9208 41.457C56.0334 41.457 60.9887 36.5017 60.9887 30.3891C60.9887 24.2765 56.0334 19.3213 49.9208 19.3213C43.8082 19.3213 38.853 24.2765 38.853 30.3891L38.853 30.4068L38.853 30.4246V30.4425L38.853 30.4605L38.853 30.4786V30.4967L38.853 30.5149L38.853 30.5332L38.853 30.5516L38.853 30.5701L38.853 30.5887L38.853 30.6074L38.853 30.6261V30.6449L38.853 30.6638V30.6828L38.853 30.7019L38.853 30.721V30.7402L38.853 30.7595L38.853 30.7789L38.853 30.7984L38.853 30.8179L38.853 30.8375L38.853 30.8572L38.853 30.877L38.853 30.8968L38.853 30.9168L38.853 30.9368L38.853 30.9568L38.853 30.977L38.853 30.9972V31.0175L38.853 31.0379L38.853 31.0583L38.853 31.0788L38.853 31.0994L38.853 31.1201L38.853 31.1408L38.853 31.1616L38.853 31.1825V31.2034L38.853 31.2244L38.853 31.2455L38.853 31.2666L38.853 31.2878L38.853 31.3091L38.853 31.3304L38.853 31.3518L38.853 31.3733L38.853 31.3948V31.4164L38.853 31.4381L38.853 31.4598L38.853 31.4816L38.853 31.5035L38.853 31.5254L38.853 31.5474L38.853 31.5694L38.853 31.5915L38.853 31.6137L38.853 31.6359L38.853 31.6582L38.853 31.6805L38.853 31.7029L38.853 31.7253L38.853 31.7478L38.853 31.7704L38.853 31.793L38.853 31.8157L38.853 31.8384V31.8612L38.853 31.884L38.853 31.9069L38.853 31.9299L38.853 31.9529L38.853 31.9759L38.853 31.999L38.853 32.0222L38.853 32.0454L38.853 32.0687L38.853 32.092L38.853 32.1153L38.853 32.1387L38.853 32.1622L38.853 32.1857L38.853 32.2092L38.853 32.2328V32.2564V32.2801V32.3039L38.853 32.3276L38.853 32.3515L38.853 32.3753L38.853 32.3992L38.853 32.4232L38.853 32.4472L38.853 32.4712L38.853 32.4953L38.853 32.5194L38.853 32.5436L38.853 32.5678L38.853 32.592L38.853 32.6163L38.853 32.6406L38.853 32.665L38.853 32.6894L38.853 32.7138L38.853 32.7383L38.853 32.7628L38.853 32.7873V32.8119L38.853 32.8365L38.853 32.8611L38.853 32.8858L38.853 32.9105V32.9353L38.853 32.9601L38.853 32.9849V33.0097L38.853 33.0346L38.853 33.0595V33.0844V33.1094L38.853 33.1344L38.853 33.1594L38.853 33.1844L38.853 33.2095L38.853 33.2346L38.853 33.2597V33.2849V33.3101L38.853 33.3353L38.853 33.3605L38.853 33.3858L38.853 33.4111L38.853 33.4364L38.853 33.4617V33.487L38.853 33.5124L38.853 33.5378L38.853 33.5632L38.853 33.5886L38.853 33.6141L38.853 33.6396L38.853 33.6651L38.853 33.6906L38.853 33.7161V33.7416L38.853 33.7672L38.853 33.7928L38.853 33.8184L38.853 33.844L38.853 33.8696L38.853 33.8953L38.853 33.9209L38.853 33.9466L38.853 33.9723L38.853 33.998L38.853 34.0237L38.853 34.0494L38.853 34.0751L38.853 34.1009L38.853 34.1266V34.1524V34.1781L38.853 34.2039L38.853 34.2297L38.853 34.2555L38.853 34.2813V34.3071L38.853 34.3329V34.3588L38.853 34.3846L38.853 34.4104L38.853 34.4363V34.4621L38.853 34.4879L38.853 34.5138L38.853 34.5396V34.5655L38.853 34.5914L38.853 34.6172L38.853 34.6431L38.853 34.6689L38.853 34.6948V34.7206L38.853 34.7465V34.7723L38.853 34.7982V34.824L38.853 34.8499L38.853 34.8757L38.853 34.9016L38.853 34.9274V34.9532L38.853 34.979L38.853 35.0049V35.0307L38.853 35.0565L38.853 35.0823L38.853 35.1081V35.1338V35.1596L38.853 35.1854V35.2111L38.853 35.2368V35.2626V35.2883V35.314L38.853 35.3397L38.853 35.3654L38.853 35.391V35.4167L38.853 35.4423L38.853 35.468V35.4936L38.853 35.5192L38.853 35.5447L38.853 35.5703L38.853 35.5958L38.853 35.6214L38.853 35.6469V35.6724L38.853 35.6978L38.853 35.7233L38.853 35.7487L38.853 35.7741L38.853 35.7995V35.8249V35.8502L38.853 35.8755L38.853 35.9008L38.853 35.9261V35.9514L38.853 35.9766V36.0018L38.853 36.027L38.853 36.0521L38.853 36.0773L38.853 36.1023L38.853 36.1274L38.853 36.1525L38.853 36.1775L38.853 36.2025L38.853 36.2274L38.853 36.2524V36.2773L38.853 36.3021L38.853 36.327L38.853 36.3518L38.853 36.3765L38.853 36.4013L38.853 36.426L38.853 36.4507L38.853 36.4753L38.853 36.4999L38.853 36.5245L38.853 36.549L38.853 36.5735L38.853 36.598L38.853 36.6224L38.853 36.6468L38.853 36.6711L38.853 36.6954L38.853 36.7197V36.7439L38.853 36.7681L38.853 36.7923L38.853 36.8164L38.853 36.8405L38.853 36.8645L38.853 36.8885V36.9124L38.853 36.9363L38.853 36.9602L38.853 36.984L38.853 37.0078L38.853 37.0315L38.853 37.0552L38.853 37.0788L38.853 37.1024L38.853 37.1259L38.853 37.1494L38.853 37.1729L38.853 37.1963V37.2196V37.2429L38.853 37.2661L38.853 37.2893V37.3125L38.853 37.3356L38.853 37.3586V37.3816L38.853 37.4045L38.853 37.4274L38.853 37.4503L38.853 37.473L38.853 37.4958L38.853 37.5184L38.853 37.541L38.853 37.5636V37.5861L38.853 37.6085L38.853 37.6309L38.853 37.6532L38.853 37.6755L38.853 37.6977V37.7198L38.853 37.7419L38.853 37.764L38.853 37.7859L38.853 37.8078L38.853 37.8297L38.853 37.8515V37.8732L38.853 37.8948L38.853 37.9164L38.853 37.9379L38.853 37.9594L38.853 37.9808L38.853 38.0021L38.853 38.0234L38.853 38.0446L38.853 38.0657L38.853 38.0868L38.853 38.1078L38.853 38.1287L38.853 38.1495L38.853 38.1703V38.191L38.853 38.2117V38.2323L38.853 38.2528L38.853 38.2732L38.853 38.2935L38.853 38.3138L38.853 38.334L38.853 38.3542L38.853 38.3742V38.3942L38.853 38.4141L38.853 38.434L38.853 38.4537L38.853 38.4734L38.853 38.493L38.853 38.5125L38.853 38.532V38.5514L38.853 38.5706L38.853 38.5899L38.853 38.609L38.853 38.628L38.853 38.647L38.853 38.6659L38.853 38.6847V38.7034L38.853 38.722L38.853 38.7406V38.7591L38.853 38.7775L38.853 38.7958L38.853 38.814L38.853 38.8321L38.853 38.8501L38.853 38.8681L38.853 38.886V38.9038L38.853 38.9214L38.853 38.939L38.853 38.9566L38.853 38.974L38.853 38.9913L38.853 39.0086L38.853 39.0257L38.853 39.0428L38.853 39.0597L38.853 39.0766V39.0934L38.853 39.1101L38.853 39.1267L38.853 39.1432L38.853 39.1596L38.853 39.1759L38.853 39.1921L38.853 39.2082V39.2242L38.853 39.2401L38.853 39.256L38.853 39.2717L38.853 39.2873L38.853 39.3028L38.853 39.3182L38.853 39.3336L38.853 39.3488L38.853 39.3639L38.853 39.3789L38.853 39.3938L38.853 39.4087L38.853 39.4234L38.853 39.438L38.853 39.4525L38.853 39.4669L38.853 39.4812V39.4954L38.853 39.5094L38.853 39.5234V39.5373L38.853 39.551V39.5647L38.853 39.5782V39.5916L38.853 39.605L38.853 39.6182L38.853 39.6313L38.853 39.6443L38.853 39.6572L38.853 39.6699L38.853 39.6826L38.853 39.6951L38.853 39.7075L38.853 39.7199V39.7321L38.853 39.7441L38.853 39.7561L38.853 39.768V39.7797L38.853 39.7913L38.853 39.8028L38.853 39.8142V39.8255L38.853 39.8366L38.853 39.8476L38.853 39.8585V39.8693L38.853 39.88V39.8905L38.853 39.901L38.853 39.9113V39.9214L38.853 39.9315V39.9414L38.853 39.9512L38.853 39.9609L38.853 39.9705L38.853 39.9799L38.853 39.9892L38.853 39.9984V40.0075V40.0164L38.853 40.0252L38.853 40.0338L38.853 40.0424L38.853 40.0508V40.0591L38.853 40.0672V40.0752L38.853 40.0831L38.853 40.0909L38.853 40.0985V40.106V40.1134L38.853 40.1206L38.853 40.1277V40.1346L38.853 40.1414L38.853 40.1481L38.853 40.1547V40.1611L38.853 40.1674L38.853 40.1735L38.853 40.1795L38.853 40.1854V40.1911V40.1967L38.853 40.2021L38.853 40.2074V40.2126L38.853 40.2176L38.853 40.2225L38.853 40.2272L38.853 40.2318L38.853 40.2362L38.853 40.2405L38.853 40.2447L38.853 40.2487L38.853 40.2526L38.853 40.2563L38.853 40.2599L38.853 40.2633L38.853 40.2666V40.2697V40.2727L38.853 40.2755L38.853 40.2782L38.853 40.2808L38.853 40.2832L38.853 40.2854L38.853 40.2875L38.853 40.2894L38.853 40.2912L38.853 40.2928L38.853 40.2943L38.853 40.2956L38.853 40.2968L38.853 40.2978L38.853 40.2987L38.853 40.2994L38.853 40.2999L38.853 40.3003L38.853 40.3006L40.0093 40.3006L41.1657 40.3006L41.1657 40.3003L41.1657 40.2999L41.1657 40.2994L41.1657 40.2987L41.1657 40.2978L41.1657 40.2968L41.1657 40.2956L41.1657 40.2943V40.2928L41.1657 40.2912L41.1657 40.2894L41.1657 40.2875L41.1657 40.2854L41.1657 40.2832L41.1657 40.2808L41.1657 40.2782L41.1657 40.2755L41.1657 40.2727V40.2697V40.2666L41.1657 40.2633L41.1657 40.2599L41.1657 40.2563L41.1657 40.2526V40.2487L41.1657 40.2447L41.1657 40.2405L41.1657 40.2362L41.1657 40.2318L41.1657 40.2272L41.1657 40.2225L41.1657 40.2176L41.1657 40.2126V40.2074L41.1657 40.2021L41.1657 40.1967V40.1911V40.1854L41.1657 40.1795L41.1657 40.1735V40.1674V40.1611V40.1547L41.1657 40.1481L41.1657 40.1414L41.1657 40.1346L41.1657 40.1277L41.1657 40.1206L41.1657 40.1134V40.106V40.0985L41.1657 40.0909L41.1657 40.0831L41.1657 40.0752V40.0672L41.1657 40.0591V40.0508L41.1657 40.0424L41.1657 40.0338V40.0252L41.1657 40.0164L41.1657 40.0075V39.9984L41.1657 39.9892L41.1657 39.9799L41.1657 39.9705V39.9609L41.1657 39.9512L41.1657 39.9414V39.9315L41.1657 39.9214V39.9113L41.1657 39.901L41.1657 39.8905V39.88V39.8693V39.8585L41.1657 39.8476L41.1657 39.8366L41.1657 39.8255V39.8142L41.1657 39.8028L41.1657 39.7913L41.1657 39.7797V39.768L41.1657 39.7561L41.1657 39.7441L41.1657 39.7321V39.7199L41.1657 39.7075L41.1657 39.6951L41.1657 39.6826L41.1657 39.6699L41.1657 39.6572L41.1657 39.6443L41.1657 39.6313L41.1657 39.6182L41.1657 39.605L41.1657 39.5916V39.5782L41.1657 39.5647V39.551L41.1657 39.5373L41.1657 39.5234L41.1657 39.5094V39.4954V39.4812V39.4669V39.4525L41.1657 39.438V39.4234L41.1657 39.4087L41.1657 39.3938L41.1657 39.3789L41.1657 39.3639L41.1657 39.3488L41.1657 39.3336L41.1657 39.3182L41.1657 39.3028L41.1657 39.2873L41.1657 39.2717L41.1657 39.256L41.1657 39.2401L41.1657 39.2242L41.1657 39.2082L41.1657 39.1921L41.1657 39.1759L41.1657 39.1596L41.1657 39.1432L41.1657 39.1267L41.1657 39.1101L41.1657 39.0934V39.0766V39.0597L41.1657 39.0428L41.1657 39.0257L41.1657 39.0086V38.9913L41.1657 38.974L41.1657 38.9566L41.1657 38.939L41.1657 38.9214L41.1657 38.9038L41.1657 38.886L41.1657 38.8681V38.8501L41.1657 38.8321L41.1657 38.814L41.1657 38.7958L41.1657 38.7775L41.1657 38.7591V38.7406L41.1657 38.722L41.1657 38.7034V38.6847L41.1657 38.6659L41.1657 38.647L41.1657 38.628L41.1657 38.609L41.1657 38.5899L41.1657 38.5706L41.1657 38.5514V38.532L41.1657 38.5125V38.493L41.1657 38.4734L41.1657 38.4537L41.1657 38.434L41.1657 38.4141L41.1657 38.3942V38.3742L41.1657 38.3542L41.1657 38.334L41.1657 38.3138L41.1657 38.2935L41.1657 38.2732L41.1657 38.2528L41.1657 38.2323V38.2117V38.191V38.1703L41.1657 38.1495L41.1657 38.1287L41.1657 38.1078L41.1657 38.0868L41.1657 38.0657L41.1657 38.0446L41.1657 38.0234L41.1657 38.0021L41.1657 37.9808L41.1657 37.9594L41.1657 37.9379V37.9164L41.1657 37.8948L41.1657 37.8732L41.1657 37.8515L41.1657 37.8297L41.1657 37.8078L41.1657 37.7859L41.1657 37.764L41.1657 37.7419L41.1657 37.7198V37.6977L41.1657 37.6755L41.1657 37.6532L41.1657 37.6309L41.1657 37.6085L41.1657 37.5861V37.5636L41.1657 37.541L41.1657 37.5184V37.4958L41.1657 37.473L41.1657 37.4503L41.1657 37.4274L41.1657 37.4045L41.1657 37.3816V37.3586L41.1657 37.3356L41.1657 37.3125V37.2893V37.2661L41.1657 37.2429V37.2196V37.1963L41.1657 37.1729L41.1657 37.1494L41.1657 37.1259L41.1657 37.1024L41.1657 37.0788L41.1657 37.0552L41.1657 37.0315L41.1657 37.0078L41.1657 36.984L41.1657 36.9602V36.9363L41.1657 36.9124V36.8885L41.1657 36.8645L41.1657 36.8405L41.1657 36.8164L41.1657 36.7923L41.1657 36.7681L41.1657 36.7439V36.7197L41.1657 36.6954L41.1657 36.6711L41.1657 36.6468L41.1657 36.6224L41.1657 36.598L41.1657 36.5735L41.1657 36.549L41.1657 36.5245L41.1657 36.4999L41.1657 36.4753L41.1657 36.4507L41.1657 36.426V36.4013L41.1657 36.3765L41.1657 36.3518L41.1657 36.327L41.1657 36.3021V36.2773V36.2524V36.2274L41.1657 36.2025L41.1657 36.1775L41.1657 36.1525L41.1657 36.1274L41.1657 36.1023L41.1657 36.0773L41.1657 36.0521L41.1657 36.027L41.1657 36.0018V35.9766L41.1657 35.9514V35.9261L41.1657 35.9008L41.1657 35.8755L41.1657 35.8502V35.8249V35.7995L41.1657 35.7741L41.1657 35.7487L41.1657 35.7233L41.1657 35.6978L41.1657 35.6724V35.6469L41.1657 35.6214L41.1657 35.5958L41.1657 35.5703L41.1657 35.5447L41.1657 35.5192L41.1657 35.4936L41.1657 35.468L41.1657 35.4423L41.1657 35.4167V35.391L41.1657 35.3654L41.1657 35.3397L41.1657 35.314V35.2883L41.1657 35.2626V35.2368L41.1657 35.2111V35.1854L41.1657 35.1596V35.1338V35.1081L41.1657 35.0823L41.1657 35.0565L41.1657 35.0307V35.0049L41.1657 34.979L41.1657 34.9532V34.9274V34.9016V34.8757V34.8499V34.824V34.7982L41.1657 34.7723L41.1657 34.7465L41.1657 34.7206V34.6948L41.1657 34.6689L41.1657 34.6431L41.1657 34.6172L41.1657 34.5914L41.1657 34.5655V34.5396L41.1657 34.5138L41.1657 34.4879L41.1657 34.4621V34.4363L41.1657 34.4104L41.1657 34.3846L41.1657 34.3588V34.3329L41.1657 34.3071V34.2813L41.1657 34.2555L41.1657 34.2297L41.1657 34.2039L41.1657 34.1781V34.1524V34.1266L41.1657 34.1009L41.1657 34.0751L41.1657 34.0494L41.1657 34.0237L41.1657 33.998L41.1657 33.9723L41.1657 33.9466L41.1657 33.9209L41.1657 33.8953L41.1657 33.8696L41.1657 33.844V33.8184L41.1657 33.7928L41.1657 33.7672L41.1657 33.7416V33.7161L41.1657 33.6906V33.6651V33.6396V33.6141L41.1657 33.5886L41.1657 33.5632L41.1657 33.5378L41.1657 33.5124L41.1657 33.487V33.4617L41.1657 33.4364L41.1657 33.4111L41.1657 33.3858L41.1657 33.3605L41.1657 33.3353L41.1657 33.3101V33.2849V33.2597L41.1657 33.2346L41.1657 33.2095L41.1657 33.1844L41.1657 33.1594L41.1657 33.1344L41.1657 33.1094V33.0844V33.0595L41.1657 33.0346L41.1657 33.0097V32.9849L41.1657 32.9601L41.1657 32.9353L41.1657 32.9105L41.1657 32.8858L41.1657 32.8611L41.1657 32.8365L41.1657 32.8119L41.1657 32.7873V32.7628L41.1657 32.7383L41.1657 32.7138V32.6894L41.1657 32.665L41.1657 32.6406V32.6163L41.1657 32.592L41.1657 32.5678L41.1657 32.5436L41.1657 32.5194L41.1657 32.4953L41.1657 32.4712L41.1657 32.4472L41.1657 32.4232V32.3992L41.1657 32.3753L41.1657 32.3515L41.1657 32.3276L41.1657 32.3039V32.2801V32.2564V32.2328L41.1657 32.2092L41.1657 32.1857L41.1657 32.1622L41.1657 32.1387L41.1657 32.1153L41.1657 32.092L41.1657 32.0687L41.1657 32.0454L41.1657 32.0222V31.999L41.1657 31.9759L41.1657 31.9529L41.1657 31.9299L41.1657 31.9069L41.1657 31.884V31.8612V31.8384L41.1657 31.8157V31.793L41.1657 31.7704L41.1657 31.7478L41.1657 31.7253L41.1657 31.7029L41.1657 31.6805L41.1657 31.6582L41.1657 31.6359L41.1657 31.6137L41.1657 31.5915L41.1657 31.5694L41.1657 31.5474L41.1657 31.5254L41.1657 31.5035L41.1657 31.4816L41.1657 31.4598L41.1657 31.4381L41.1657 31.4164V31.3948L41.1657 31.3733L41.1657 31.3518L41.1657 31.3304L41.1657 31.3091L41.1657 31.2878L41.1657 31.2666L41.1657 31.2455L41.1657 31.2244L41.1657 31.2034V31.1825L41.1657 31.1616V31.1408L41.1657 31.1201L41.1657 31.0994V31.0788V31.0583L41.1657 31.0379L41.1657 31.0175V30.9972L41.1657 30.977L41.1657 30.9568L41.1657 30.9368L41.1657 30.9168L41.1657 30.8968L41.1657 30.877L41.1657 30.8572L41.1657 30.8375L41.1657 30.8179L41.1657 30.7984L41.1657 30.7789L41.1657 30.7595L41.1657 30.7402L41.1657 30.721L41.1657 30.7019L41.1657 30.6828V30.6638L41.1657 30.6449V30.6261L41.1657 30.6074L41.1657 30.5887L41.1657 30.5701L41.1657 30.5516L41.1657 30.5332L41.1657 30.5149L41.1657 30.4967V30.4786L41.1657 30.4605L41.1657 30.4425V30.4246L41.1657 30.4068L41.1657 30.3891C41.1657 25.5538 45.0855 21.634 49.9208 21.634C54.7562 21.634 58.676 25.5538 58.676 30.3891Z" fill="url(#paint1_linear_738_1899)"/><path fill-rule="evenodd" clip-rule="evenodd" d="M49.9199 43.7528C53.478 43.7528 56.3624 46.6372 56.3624 50.1952C56.3624 53.7533 53.478 56.6377 49.9199 56.6377C46.3618 56.6377 43.4774 53.7533 43.4774 50.1952L43.4689 50.1952C43.4689 50.1981 43.4689 50.201 43.4689 50.2039C43.4689 51.8882 43.1577 53.4999 42.5896 54.9845C44.1531 57.3727 46.8523 58.9504 49.9199 58.9504C54.7553 58.9504 58.6751 55.0306 58.6751 50.1952C58.6751 45.3599 54.7553 41.4401 49.9199 41.4401H47.0169V43.7528H49.9199ZM41.4338 57.3008C43.4641 59.723 46.5122 61.2631 49.9199 61.2631C56.0325 61.2631 60.9878 56.3078 60.9878 50.1952C60.9878 44.0826 56.0325 39.1274 49.9199 39.1274H47.0169L47.0169 36.8147L49.9199 36.8147C57.3098 36.8147 63.3004 42.8054 63.3005 50.1952C63.3005 57.5851 57.3098 63.5758 49.9199 63.5758C45.9901 63.5758 42.456 61.8817 40.0081 59.1839C40.5364 58.6007 41.0139 57.9707 41.4338 57.3008Z" fill="url(#paint2_linear_738_1899)"/><path fill-rule="evenodd" clip-rule="evenodd" d="M38.5661 23.2835C38.986 22.6136 39.4636 21.9836 39.9919 21.4004C37.5439 18.7026 34.0098 17.0085 30.08 17.0085C22.6902 17.0085 16.6995 22.9992 16.6995 30.389C16.6995 37.7789 22.6902 43.7696 30.08 43.7696L33.3335 43.7696L33.3335 41.4569L30.08 41.4569C23.9674 41.4569 19.0122 36.5016 19.0122 30.389C19.0122 24.2764 23.9674 19.3212 30.08 19.3212C33.4878 19.3212 36.5359 20.8613 38.5661 23.2835ZM36.5311 30.389C36.5311 30.3862 36.5311 30.3833 36.5311 30.3804C36.5311 28.6961 36.8423 27.0844 37.4103 25.5998C35.8468 23.2116 33.1477 21.6339 30.08 21.6339C25.2447 21.6339 21.3249 25.5537 21.3249 30.389C21.3249 35.2244 25.2447 39.1442 30.08 39.1442L33.3335 39.1442L33.3335 36.8315L30.08 36.8315C26.5219 36.8315 23.6376 33.9471 23.6376 30.389C23.6376 26.831 26.5219 23.9466 30.08 23.9466C33.6381 23.9466 36.5225 26.831 36.5225 30.389H36.5311Z" fill="url(#paint3_linear_738_1899)"/><defs><linearGradient id="paint0_linear_738_1899" x1="29.8409" y1="43.9265" x2="24.8851" y2="36.1625" gradientUnits="userSpaceOnUse"><stop stop-color="black"/><stop offset="1" stop-color="black" stop-opacity="0"/></linearGradient><linearGradient id="paint1_linear_738_1899" x1="49.5818" y1="37.236" x2="52.9683" y2="44.4218" gradientUnits="userSpaceOnUse"><stop stop-color="black"/><stop offset="1" stop-color="black" stop-opacity="0"/></linearGradient><linearGradient id="paint2_linear_738_1899" x1="43.9644" y1="56.1507" x2="40.7432" y2="55.077" gradientUnits="userSpaceOnUse"><stop stop-color="black"/><stop offset="1" stop-color="black" stop-opacity="0"/></linearGradient><linearGradient id="paint3_linear_738_1899" x1="35.5399" y1="24.9291" x2="38.6056" y2="26.1438" gradientUnits="userSpaceOnUse"><stop stop-color="black"/><stop offset="1" stop-color="black" stop-opacity="0"/></linearGradient></defs></svg>