<svg width="32" height="32" viewBox="0 0 32 32" fill="none" xmlns="http://www.w3.org/2000/svg">
<g clip-path="url(#clip0_10_84)">
<path fill-rule="evenodd" clip-rule="evenodd" d="M26.2939 12.586H27.5291C29.9996 12.586 32.0052 10.5765 32.0052 8.10138C32.0052 5.62641 29.9996 3.6169 27.5291 3.6169C25.0587 3.6169 23.053 5.62641 23.053 8.10138V9.33893C23.0408 11.1279 24.4961 12.586 26.2939 12.586Z" fill="black"/>
<path fill-rule="evenodd" clip-rule="evenodd" d="M5.71129 12.586H4.47608C2.00565 12.586 6.10352e-05 10.5765 6.10352e-05 8.10138C6.10352e-05 5.62641 2.00565 3.6169 4.47608 3.6169C6.9465 3.6169 8.95222 5.62641 8.95222 8.10138V9.33893C8.96444 11.1279 7.5091 12.586 5.71129 12.586Z" fill="black"/>
<path fill-rule="evenodd" clip-rule="evenodd" d="M22.7229 27.0444C18.6503 28.8946 13.9175 28.9313 9.82049 27.1424L9.46579 26.9832C5.33212 25.1942 2.69046 21.31 2.69046 17.0583V16.0168C2.69046 9.14294 8.65861 3.5556 16.0088 3.5556C23.3588 3.5556 29.3269 9.13069 29.3269 16.0168V17.1809C29.3269 21.3836 26.7586 25.2187 22.7229 27.0444Z" fill="white"/>
<path fill-rule="evenodd" clip-rule="evenodd" d="M22.7229 27.0444C18.6503 28.8946 13.9175 28.9313 9.82049 27.1424L9.46579 26.9832C5.33212 25.1942 2.69046 21.31 2.69046 17.0583V16.0168C2.69046 9.14294 8.65861 3.5556 16.0088 3.5556C23.3588 3.5556 29.3269 9.13069 29.3269 16.0168V17.1809C29.3269 21.3836 26.7586 25.2187 22.7229 27.0444Z" stroke="black" stroke-width="1.55954"/>
<path fill-rule="evenodd" clip-rule="evenodd" d="M6.60635 12.0176C7.91152 9.91779 10.3878 9.25889 12.1375 10.5458C13.8871 11.8327 14.2474 14.5783 12.9423 16.6781C11.6372 18.7777 9.16077 19.4367 7.41119 18.1498C5.66161 16.8628 5.30119 14.1174 6.60635 12.0176Z" fill="black"/>
<path fill-rule="evenodd" clip-rule="evenodd" d="M22.3769 25.3945L22.3758 25.3951C18.5029 27.1545 14.0482 27.1882 10.161 25.4911L9.79982 25.3289C5.97938 23.6755 3.51077 20.0697 3.51077 16.1425V17.1691C3.51077 21.0963 5.97938 24.7022 9.79982 26.3555L10.161 26.5177C14.0482 28.2148 18.5029 28.1811 22.3758 26.4217L22.3769 26.4212C26.1006 24.7367 28.5066 21.1527 28.5066 17.2908V16.2642C28.5066 20.1261 26.1006 23.71 22.3769 25.3945Z" fill="#E6E6E6"/>
<path fill-rule="evenodd" clip-rule="evenodd" d="M17.7835 20.3684L16.6003 21.1109C16.2363 21.3324 15.7812 21.3324 15.4301 21.1109L14.2469 20.3684C13.9219 20.1599 13.7268 19.8082 13.7268 19.4304C13.7268 18.8182 14.2209 18.3232 14.832 18.3232H17.1984C17.8095 18.3232 18.3036 18.8182 18.3036 19.4304C18.3036 19.8082 18.1086 20.173 17.7835 20.3684Z" fill="black"/>
<path d="M19.3048 22.1009C17.4845 23.9247 14.533 23.9247 12.7127 22.1009" stroke="#010202" stroke-width="1.29962" stroke-linecap="round"/>
<path d="M16.0152 23.4687V20.7722" stroke="#010202" stroke-width="1.03969" stroke-linecap="round"/>
<path fill-rule="evenodd" clip-rule="evenodd" d="M9.20908 12.4633C9.67235 11.718 10.5513 11.484 11.1723 11.9409C11.7933 12.3976 11.9211 13.3722 11.4579 14.1174C10.9947 14.8627 10.1157 15.0965 9.49474 14.6398C8.87375 14.1831 8.74581 13.2085 9.20908 12.4633Z" fill="white"/>
<path fill-rule="evenodd" clip-rule="evenodd" d="M25.4241 12.0176C24.1189 9.91779 21.6426 9.25889 19.8929 10.5458C18.1433 11.8327 17.783 14.5783 19.0881 16.6781C20.3932 18.7777 22.8696 19.4367 24.6192 18.1498C26.3688 16.8628 26.7292 14.1174 25.4241 12.0176Z" fill="black"/>
<path fill-rule="evenodd" clip-rule="evenodd" d="M22.8214 12.4633C22.3581 11.718 21.4792 11.484 20.8582 11.9409C20.2372 12.3976 20.1094 13.3722 20.5725 14.1174C21.0358 14.8627 21.9147 15.0965 22.5357 14.6398C23.1567 14.1831 23.2846 13.2085 22.8214 12.4633Z" fill="white"/>
</g>
<defs>
<clipPath id="clip0_10_84">
<rect width="32" height="32" fill="white"/>
</clipPath>
</defs>
</svg>
