<svg xmlns="http://www.w3.org/2000/svg" xmlns:xlink="http://www.w3.org/1999/xlink" width="240" height="48" viewBox="0 0 240 48" fill="none"><path     fill="#6F5CF1"  d="M9.78 25.049C9.78 21.149 11.6715 17.8925 11.6715 17.8925C13.563 14.636 16.917 12.725 16.917 12.725C20.271 10.814 24.405 10.814 24.405 10.814L25.887 10.814C29.358 10.814 32.322 12.1985 32.322 12.1985C35.286 13.583 37.314 16.04 37.314 16.04C39.342 18.497 40.083 21.656 40.083 21.656L38.289 22.007C36.69 20.057 33.414 18.848 33.414 18.848C30.138 17.639 26.199 17.639 26.199 17.639L24.093 17.639C20.505 17.639 17.463 18.6335 17.463 18.6335C14.421 19.628 12.6075 21.3245 12.6075 21.3245C10.794 23.021 10.794 25.049 10.794 25.049C10.794 27.038 12.6075 28.7345 12.6075 28.7345C14.421 30.431 17.463 31.4255 17.463 31.4255C20.505 32.42 24.093 32.42 24.093 32.42L26.199 32.42C30.138 32.42 33.414 31.211 33.414 31.211C36.69 30.002 38.289 28.052 38.289 28.052L40.083 28.403C39.303 31.523 37.314 33.98 37.314 33.98C35.325 36.437 32.361 37.841 32.361 37.841C29.397 39.245 25.887 39.245 25.887 39.245L24.405 39.245C20.271 39.245 16.9365 37.334 16.9365 37.334C13.602 35.423 11.691 32.1665 11.691 32.1665C9.78 28.91 9.78 25.049 9.78 25.049Z"></path><path     fill="#6F5CF1"  d="M54.24 11.36L41.058 38.66L48.234 38.66L52.914 28.91L68.397 28.91L72.96 38.66L74.208 38.66L61.416 11.36L54.24 11.36ZM60.753 12.686L67.851 27.779L53.46 27.779L60.753 12.686Z"></path><path     fill="#6F5CF1"  d="M89.769 10.814C84.972 10.814 81.7935 12.686 81.7935 12.686C78.615 14.558 77.1525 17.0735 77.1525 17.0735C75.69 19.589 75.69 21.578 75.69 21.578C75.69 23.918 77.7765 24.6785 77.7765 24.6785C79.863 25.439 83.295 25.439 83.295 25.439L91.992 25.439C95.697 25.439 97.764 25.5755 97.764 25.5755C99.831 25.712 101.176 26.2775 101.176 26.2775C102.522 26.843 102.522 28.052 102.522 28.052C102.522 29.456 100.689 30.4505 100.689 30.4505C98.856 31.445 96.1845 31.952 96.1845 31.952C93.513 32.459 91.017 32.459 91.017 32.459L88.911 32.459C84.855 32.459 82.0665 31.4645 82.0665 31.4645C79.278 30.47 76.782 28.013 76.782 28.013L75.183 28.325C78.303 39.245 90.276 39.245 90.276 39.245C94.215 39.245 97.2765 37.724 97.2765 37.724C100.338 36.203 102.015 33.707 102.015 33.707C103.692 31.211 103.692 28.481 103.692 28.481C103.692 25.985 101.566 25.1855 101.566 25.1855C99.441 24.386 96.594 24.386 96.594 24.386L86.025 24.386C82.515 24.386 80.5455 24.1325 80.5455 24.1325C78.576 23.879 77.757 23.372 77.757 23.372C76.938 22.865 76.938 22.007 76.938 22.007C76.938 20.525 78.849 19.55 78.849 19.55C80.76 18.575 83.4705 18.1265 83.4705 18.1265C86.181 17.678 88.599 17.678 88.599 17.678L90.705 17.678C94.488 17.678 97.53 18.6335 97.53 18.6335C100.572 19.589 102.795 22.046 102.795 22.046L104.433 21.734C103.029 16.43 99.1875 13.622 99.1875 13.622C95.346 10.814 89.769 10.814 89.769 10.814Z"></path><path     fill="#6F5CF1"  d="M118.629 38.66L118.629 18.185L105.603 18.185L105.603 11.36L132.825 11.36L132.825 18.185L119.76 18.185L119.76 38.66L118.629 38.66Z"></path><path     fill="#6F5CF1"  d="M146.592 11.36L133.41 38.66L140.586 38.66L145.266 28.91L160.749 28.91L165.312 38.66L166.56 38.66L153.768 11.36L146.592 11.36ZM153.105 12.686L160.203 27.779L145.812 27.779L153.105 12.686Z"></path><path     fill="#6F5CF1"  d="M168.315 11.36L169.446 11.36L169.446 31.835L189.687 31.835L189.687 38.66L168.315 38.66L168.315 11.36Z"></path><path     fill="#6F5CF1"  d="M196.707 5.54901C196.707 4.22301 195.79 3.30651 195.79 3.30651C194.874 2.39001 193.587 2.39001 193.587 2.39001C192.3 2.39001 191.383 3.30651 191.383 3.30651C190.467 4.22301 190.467 5.54901 190.467 5.54901C190.467 6.83601 191.383 7.75251 191.383 7.75251C192.3 8.66901 193.587 8.66901 193.587 8.66901C194.874 8.66901 195.79 7.75251 195.79 7.75251C196.707 6.83601 196.707 5.54901 196.707 5.54901ZM193.002 11.36L193.002 38.66L194.133 38.66L194.133 11.36L193.002 11.36Z"></path><path     fill="#6F5CF1"  d="M210.084 11.36L196.902 38.66L204.078 38.66L208.758 28.91L224.241 28.91L228.804 38.66L230.052 38.66L217.26 11.36L210.084 11.36ZM216.597 12.686L223.695 27.779L209.304 27.779L216.597 12.686Z"></path></svg>