<svg width="24" height="24" viewBox="0 0 24 24" fill="none" xmlns="http://www.w3.org/2000/svg">
<path d="M14.876 18.99L13.508 20.313C13.3217 20.527 13.0919 20.6989 12.834 20.8173C12.5762 20.9357 12.296 20.9979 12.0123 20.9997C11.7285 21.0015 11.4476 20.9428 11.1883 20.8277C10.9289 20.7126 10.697 20.5436 10.508 20.332L5 15C3.5 13.5 2 11.8 2 9.50001C2.00002 8.38721 2.33759 7.30059 2.96813 6.38367C3.59867 5.46675 4.49252 4.76267 5.53161 4.36441C6.5707 3.96615 7.70616 3.89245 8.78801 4.15305C9.86987 4.41365 10.8472 4.99629 11.591 5.82401C11.6434 5.88002 11.7067 5.92468 11.7771 5.95521C11.8474 5.98574 11.9233 6.00149 12 6.00149C12.0767 6.00149 12.1526 5.98574 12.2229 5.95521C12.2933 5.92468 12.3566 5.88002 12.409 5.82401C13.1504 4.99091 14.128 4.40338 15.2116 4.13961C16.2952 3.87585 17.4335 3.94836 18.4749 4.34749C19.5163 4.74663 20.4114 5.45346 21.0411 6.37391C21.6708 7.29436 22.0053 8.38477 22 9.50001C21.9998 10.0334 21.9175 10.5636 21.756 11.072" stroke="#A7A9AA" stroke-width="1.5" stroke-linecap="round" stroke-linejoin="round"/>
<path d="M15 15H21" stroke="#A7A9AA" stroke-width="1.5" stroke-linecap="round" stroke-linejoin="round"/>
</svg>
