<?xml version="1.0" standalone="no"?><!DOCTYPE svg PUBLIC "-//W3C//DTD SVG 1.1//EN" "http://www.w3.org/Graphics/SVG/1.1/DTD/svg11.dtd"><svg t="1647572077602" class="icon" viewBox="0 0 1024 1024" version="1.1" xmlns="http://www.w3.org/2000/svg" p-id="981" width="24" height="24" xmlns:xlink="http://www.w3.org/1999/xlink"><defs><style type="text/css">@font-face { font-weight: 400; font-style: normal; font-family: Circular-Loom; src: url("https://cdn.loom.com/assets/fonts/circular/CircularXXWeb-Book-cd7d2bcec649b1243839a15d5eb8f0a3.woff2") format("woff2"); }
@font-face { font-weight: 500; font-style: normal; font-family: Circular-Loom; src: url("https://cdn.loom.com/assets/fonts/circular/CircularXXWeb-Medium-d74eac43c78bd5852478998ce63dceb3.woff2") format("woff2"); }
@font-face { font-weight: 700; font-style: normal; font-family: Circular-Loom; src: url("https://cdn.loom.com/assets/fonts/circular/CircularXXWeb-Bold-83b8ceaf77f49c7cffa44107561909e4.woff2") format("woff2"); }
@font-face { font-weight: 900; font-style: normal; font-family: Circular-Loom; src: url("https://cdn.loom.com/assets/fonts/circular/CircularXXWeb-Black-bf067ecb8aa777ceb6df7d72226febca.woff2") format("woff2"); }
</style></defs><path d="M791.272727 139.636364h-139.636363a23.272727 23.272727 0 0 0 0 46.545454h139.636363a48.64 48.64 0 0 1 11.869091 1.629091L550.167273 442.181818a23.272727 23.272727 0 0 0 0 32.814546 23.272727 23.272727 0 0 0 16.290909 6.981818 23.272727 23.272727 0 0 0 16.523636-6.981818L836.189091 220.858182A48.64 48.64 0 0 1 837.818182 232.727273v139.636363a23.272727 23.272727 0 0 0 46.545454 0v-139.636363a93.090909 93.090909 0 0 0-93.090909-93.090909z" p-id="982" fill="#6f5cf1"></path><path d="M861.090909 512a23.272727 23.272727 0 0 0-23.272727 23.272727v256a46.545455 46.545455 0 0 1-46.545455 46.545455H232.727273a46.545455 46.545455 0 0 1-46.545455-46.545455V232.727273a46.545455 46.545455 0 0 1 46.545455-46.545455h256a23.272727 23.272727 0 0 0 0-46.545454H232.727273a93.090909 93.090909 0 0 0-93.090909 93.090909v558.545454a93.090909 93.090909 0 0 0 93.090909 93.090909h558.545454a93.090909 93.090909 0 0 0 93.090909-93.090909V535.272727a23.272727 23.272727 0 0 0-23.272727-23.272727z" p-id="983" fill="#6f5cf1"></path></svg>