<svg xmlns="http://www.w3.org/2000/svg" fill="none" viewBox="0 0 48 48"><path stroke-linejoin="round" stroke-linecap="round" stroke-width="2" stroke="#333" d="M39 6H9a3 3 0 0 0-3 3v30a3 3 0 0 0 3 3h30a3 3 0 0 0 3-3V9a3 3 0 0 0-3-3Z" data-follow-stroke="#333"/><path stroke-linejoin="round" stroke-linecap="round" stroke-width="2" stroke="#333" d="M18 23a5 5 0 1 0 0-10 5 5 0 0 0 0 10ZM27.79 26.22a2 2 0 0 1 3.243.052l8.775 12.584c.924 1.326-.025 3.144-1.64 3.144H16l11.79-15.78Z" data-follow-stroke="#333"/></svg>