<svg width="24" height="24" viewBox="0 0 24 24" fill="none" xmlns="http://www.w3.org/2000/svg">
<path d="M15.707 21.293C15.5195 21.4805 15.2652 21.5858 15 21.5858C14.7348 21.5858 14.4805 21.4805 14.293 21.293L12.707 19.707C12.5195 19.5195 12.4142 19.2652 12.4142 19C12.4142 18.7348 12.5195 18.4805 12.707 18.293L18.293 12.707C18.4805 12.5195 18.7348 12.4142 19 12.4142C19.2652 12.4142 19.5195 12.5195 19.707 12.707L21.293 14.293C21.4805 14.4805 21.5858 14.7348 21.5858 15C21.5858 15.2652 21.4805 15.5195 21.293 15.707L15.707 21.293Z" stroke="#333333" stroke-width="1.5" stroke-linecap="round" stroke-linejoin="round"/>
<path d="M18 13L16.625 6.12601C16.5876 5.93899 16.4975 5.76656 16.3653 5.62907C16.2331 5.49157 16.0644 5.39475 15.879 5.35001L3.23501 2.02801C3.06843 1.98773 2.89431 1.99094 2.72933 2.03733C2.56436 2.08371 2.41407 2.17172 2.29289 2.29289C2.17172 2.41407 2.08371 2.56436 2.03733 2.72933C1.99094 2.89431 1.98773 3.06843 2.02801 3.23501L5.35001 15.879C5.39475 16.0644 5.49157 16.2331 5.62907 16.3653C5.76656 16.4975 5.93899 16.5876 6.12601 16.625L13 18" stroke="#333333" stroke-width="1.5" stroke-linecap="round" stroke-linejoin="round"/>
<path d="M2.3 2.29999L9.586 9.58599" stroke="#333333" stroke-width="1.5" stroke-linecap="round" stroke-linejoin="round"/>
<path d="M11 13C12.1046 13 13 12.1046 13 11C13 9.89543 12.1046 9 11 9C9.89543 9 9 9.89543 9 11C9 12.1046 9.89543 13 11 13Z" stroke="#333333" stroke-width="1.5" stroke-linecap="round" stroke-linejoin="round"/>
</svg>
