<svg xmlns="http://www.w3.org/2000/svg" fill="none" viewBox="0 0 48 48"><path fill-opacity=".01" fill="#fff" d="M0 0h48v48H0z"/><path stroke-linejoin="round" stroke-width="2" stroke="#333" d="M24 40.944A11.955 11.955 0 0 0 32 44c6.627 0 12-5.373 12-12 0-5.592-3.824-10.29-9-11.622" data-follow-stroke="#333"/><path stroke-linejoin="round" stroke-width="2" stroke="#333" d="M13 20.378C7.824 21.71 4 26.408 4 32c0 6.627 5.373 12 12 12s12-5.373 12-12c0-1.55-.294-3.03-.828-4.39" data-follow-stroke="#333"/><path stroke-linejoin="round" stroke-width="2" stroke="#333" d="M24 28c6.627 0 12-5.373 12-12S30.627 4 24 4 12 9.373 12 16s5.373 12 12 12Z" data-follow-stroke="#333"/></svg>