<svg width="24" height="24" viewBox="0 0 24 24" fill="none" xmlns="http://www.w3.org/2000/svg">
<path d="M3 20H7.5C7.63261 20 7.75979 19.9473 7.85355 19.8535C7.94732 19.7598 8 19.6326 8 19.5V19.218C7.99906 19.1302 7.97591 19.0441 7.93272 18.9677C7.88953 18.8913 7.82771 18.8271 7.753 18.781C6.28137 17.8593 5.14957 16.4839 4.52847 14.8624C3.90738 13.2409 3.83073 11.4613 4.31009 9.79236C4.78945 8.12343 5.7988 6.65578 7.18573 5.61101C8.57266 4.56624 10.2619 4.00109 11.9983 4.00089C13.7347 4.00068 15.424 4.56544 16.8112 5.60988C18.1983 6.65432 19.208 8.12173 19.6878 9.79055C20.1675 11.4594 20.0913 13.239 19.4706 14.8606C18.8499 16.4823 17.7184 17.858 16.247 18.78C16.1722 18.8262 16.1102 18.8905 16.067 18.9671C16.0238 19.0437 16.0008 19.1301 16 19.218V19.5C16 19.6326 16.0527 19.7598 16.1464 19.8535C16.2402 19.9473 16.3674 20 16.5 20H21" stroke="#333333" stroke-width="1.5" stroke-linecap="round" stroke-linejoin="round"/>
</svg>
