<svg width="24" height="24" viewBox="0 0 24 24" fill="none" xmlns="http://www.w3.org/2000/svg">
<path d="M11 10L14 13" stroke="#333333" stroke-width="1.5" stroke-linecap="round" stroke-linejoin="round"/>
<path d="M6.5 21C7.19224 21 7.86892 20.7947 8.4445 20.4101C9.02007 20.0256 9.46867 19.4789 9.73358 18.8394C9.99849 18.1999 10.0678 17.4961 9.93275 16.8172C9.7977 16.1383 9.46436 15.5146 8.97487 15.0251C8.48539 14.5356 7.86175 14.2023 7.18282 14.0673C6.50388 13.9322 5.80015 14.0015 5.16061 14.2664C4.52107 14.5313 3.97444 14.9799 3.58986 15.5555C3.20527 16.1311 3 16.8078 3 17.5C3.00019 18.1656 2.74705 18.8063 2.292 19.292C2.15179 19.4319 2.05626 19.6102 2.01752 19.8044C1.97879 19.9986 1.9986 20.2 2.07443 20.3829C2.15027 20.5659 2.27872 20.7222 2.44349 20.832C2.60827 20.9419 2.80196 21.0004 3 21H6.5Z" stroke="#333333" stroke-width="1.5" stroke-linecap="round" stroke-linejoin="round"/>
<path d="M9.969 17.031L21.378 5.62401C21.7761 5.22592 21.9997 4.68599 21.9997 4.12301C21.9997 3.56003 21.7761 3.0201 21.378 2.62201C20.9799 2.22392 20.44 2.00027 19.877 2.00027C19.314 2.00027 18.7741 2.22392 18.376 2.62201L6.967 14.031" stroke="#333333" stroke-width="1.5" stroke-linecap="round" stroke-linejoin="round"/>
</svg>
