<svg xmlns="http://www.w3.org/2000/svg" fill="none" viewBox="0 0 48 48"><path fill-opacity=".01" fill="#fff" d="M0 0h48v48H0z"/><path stroke-linejoin="round" stroke-width="2" stroke="#333" d="M24 44c5.96 0 2.336-8.864 6-13 3.126-3.53 14-1.914 14-7 0-11.046-8.954-20-20-20S4 12.954 4 24s8.954 20 20 20Z" data-follow-stroke="#333"/><path stroke-linejoin="round" stroke-width="2" stroke="#333" d="M28 17a3 3 0 1 0 0-6 3 3 0 0 0 0 6ZM16 21a3 3 0 1 0 0-6 3 3 0 0 0 0 6ZM17 34a3 3 0 1 0 0-6 3 3 0 0 0 0 6Z" data-follow-stroke="#333"/></svg>