<svg width="38" height="42" viewBox="0 0 38 42" fill="none" xmlns="http://www.w3.org/2000/svg">
<g clip-path="url(#clip0_13_130)">
<mask id="mask0_13_130" style="mask-type:luminance" maskUnits="userSpaceOnUse" x="0" y="0" width="38" height="42">
<path d="M0 0H38V42H0V0Z" fill="white"/>
</mask>
<g mask="url(#mask0_13_130)">
<path d="M19.025 11.898C22.321 11.898 24.995 9.237 24.995 5.949C24.995 2.661 22.324 0 19.025 0C15.726 0 13.055 2.662 13.055 5.95C13.055 9.237 15.726 11.898 19.025 11.898ZM19.025 41.945C22.321 41.945 24.995 39.283 24.995 35.995C24.995 32.708 22.324 30.046 19.025 30.046C15.726 30.046 13.055 32.708 13.055 35.996C13.055 39.283 15.726 41.945 19.025 41.945ZM5.97 19.41C9.266 19.41 11.94 16.748 11.94 13.46C11.94 10.173 9.268 7.511 5.97 7.511C2.67 7.511 0 10.175 0 13.463C0 16.752 2.67 19.413 5.97 19.413V19.41ZM32.08 34.434C35.376 34.434 38.05 31.772 38.05 28.484C38.05 25.197 35.379 22.535 32.08 22.535C28.781 22.535 26.11 25.197 26.11 28.485C26.11 31.772 28.781 34.434 32.08 34.434ZM32.08 19.41C35.376 19.41 38.05 16.748 38.05 13.46C38.05 10.174 35.379 7.512 32.08 7.512C28.781 7.512 26.11 10.174 26.11 13.461C26.11 16.748 28.781 19.41 32.08 19.41ZM5.97 34.433C9.266 34.433 11.94 31.771 11.94 28.483C11.94 25.196 9.268 22.535 5.97 22.535C2.67 22.535 0 25.202 0 28.486C0 31.771 2.67 34.436 5.97 34.436V34.433Z" fill="black"/>
</g>
</g>
<defs>
<clipPath id="clip0_13_130">
<rect width="38" height="42" fill="white"/>
</clipPath>
</defs>
</svg>
