<svg width="28" height="28" viewBox="0 0 28 28" fill="none" xmlns="http://www.w3.org/2000/svg">
<path d="M26.4031 10.82L22.8201 4.936C22.2748 4.0394 21.5079 3.29831 20.5931 2.78409C19.6783 2.26986 18.6465 1.99983 17.5971 2H10.6981C9.649 1.9999 8.6175 2.26986 7.70292 2.7839C6.78834 3.29793 6.02148 4.03873 5.47614 4.935L1.89214 10.82C1.30865 11.7777 1 12.8775 1 13.999C1 15.1205 1.30865 16.2203 1.89214 17.178L5.47614 23.064C6.02136 23.9605 6.78817 24.7015 7.70276 25.2157C8.61734 25.7299 9.64891 26 10.6981 26H17.5981C18.6471 25.9999 19.6784 25.7299 20.5928 25.2159C21.5072 24.7018 22.2739 23.9611 22.8191 23.065L26.4031 17.179C26.9866 16.2213 27.2953 15.1215 27.2953 14C27.2953 12.8785 26.9866 11.7787 26.4031 10.821V10.82Z" fill="#00C6FF"/>
<path d="M21.272 19.42L17.304 15.83L17.38 15.72C17.866 15.013 18.207 14.208 18.326 13.358C18.4418 12.5461 18.3726 11.7186 18.1236 10.9373C17.8745 10.1559 17.452 9.44101 16.8876 8.84599C16.3233 8.25097 15.6317 7.79124 14.8646 7.50119C14.0976 7.21113 13.2748 7.09825 12.458 7.171C9.82 7.4 7.71 9.555 7.524 12.195C7.47146 12.9394 7.57264 13.6867 7.82127 14.3903C8.06989 15.094 8.46064 15.739 8.96919 16.2851C9.47775 16.8313 10.0932 17.267 10.7774 17.5651C11.4615 17.8632 12.1997 18.0174 12.946 18.018C13.775 18.018 14.57 17.835 15.313 17.474L15.462 17.402L19.655 21.198C19.8928 21.3968 20.1983 21.496 20.5075 21.475C20.8168 21.4539 21.106 21.3142 21.3147 21.085C21.5234 20.8558 21.6354 20.5548 21.6275 20.2449C21.6195 19.935 21.4922 19.6402 21.272 19.422V19.42ZM13.3 16.023C12.7888 16.0749 12.2725 16.0124 11.7885 15.84C11.3045 15.6676 10.8649 15.3897 10.5016 15.0264C10.1383 14.6631 9.86036 14.2235 9.68799 13.7395C9.51562 13.2555 9.45311 12.7392 9.505 12.228C9.58864 11.4381 9.94062 10.7007 10.5022 10.1389C11.0638 9.57712 11.8011 9.22489 12.591 9.141C13.1022 9.08874 13.6187 9.15099 14.1029 9.32323C14.5871 9.49547 15.0268 9.77337 15.3902 10.1368C15.7536 10.5001 16.0315 10.9399 16.2038 11.4241C16.376 11.9083 16.4383 12.4247 16.386 12.936C16.3024 13.7259 15.9504 14.4633 15.3888 15.0251C14.8272 15.5869 14.0899 15.9391 13.3 16.023Z" fill="white"/>
</svg>
