<svg xmlns="http://www.w3.org/2000/svg" xmlns:xlink="http://www.w3.org/1999/xlink" xml:space="preserve">
<style type="text/css">
	.st1{fill:#ec5f59;}
	.st2{fill:#FFFFFF;}
</style>
<g>
	<g>
		<circle class="st1" cx="960" cy="540" r="101.9"/>
	</g>
	<g>
		<path class="st2" d="M998.3,550.4H982c-1,0-1.9,0.8-1.9,1.9v18.1h-14.4c-1,0-2-0.4-2.6-1.2l-24.8-29.5c-0.8-1-2.5-0.4-2.5,0.9
			v29.8h-14.3c-1,0-1.9,0.8-1.9,1.9v16.3c0,1,0.8,1.9,1.9,1.9h58.5h18.2c1,0,1.9-0.8,1.9-1.9v-18.2v-18.1
			C1000.2,551.3,999.4,550.4,998.3,550.4z"/>
		<path class="st2" d="M921.7,509.5h12.7c1,0,2,0.4,2.6,1.2l24.8,29.5c0.8,1,2.5,0.4,2.5-0.9v-29.8h14.3c1,0,1.9-0.8,1.9-1.9v-16.3
			c0-1-0.8-1.9-1.9-1.9h-56.8c-1,0-1.9,0.8-1.9,1.9v16.3C919.8,508.7,920.6,509.5,921.7,509.5z"/>
	</g>
</g>
</svg>
