<svg width="20px" height="19px" viewBox="0 0 20 19" version="1.1" xmlns="http://www.w3.org/2000/svg" xmlns:xlink="http://www.w3.org/1999/xlink">
    <title>路径</title>
    <defs>
        <linearGradient x1="50%" y1="0%" x2="50%" y2="100%" id="linearGradient-1">
            <stop stop-color="#FC8500" offset="0.0369510135%"></stop>
            <stop stop-color="#FF9400" offset="48.8017314%"></stop>
            <stop stop-color="#FFBF41" offset="100%"></stop>
        </linearGradient>
    </defs>
    <g id="控件" stroke="none" stroke-width="1" fill="none" fill-rule="evenodd">
        <g id="ch_logo1" transform="translate(-2.000000, -3.000000)" fill="url(#linearGradient-1)">
            <path d="M10.637833,3.80512871 C10.6427039,3.81209036 10.6470679,3.81779936 10.6509248,3.82225569 C10.9988176,4.2242127 11.5147267,4.47882048 12.0905632,4.47882048 C12.694569,4.47882048 13.2326409,4.19869311 13.5800384,3.76222045 C13.58483,3.75620021 13.5906401,3.74768254 13.5974685,3.73666745 L13.5974923,3.73668219 C13.8569918,3.31807756 14.36083,3.11989893 14.8359753,3.24953995 C14.8359753,3.24953995 14.8359753,3.24953995 14.8359753,3.24953995 C17.6474299,4.01663127 20.0016714,5.87924359 21.4034055,8.34579281 C21.4274607,8.38812129 21.4775788,8.48703025 21.5537598,8.64251969 L21.553767,8.64251616 C21.8034572,9.15214682 21.6206499,9.76809566 21.1333688,10.0590007 C21.1333688,10.0590007 21.1333688,10.0590007 21.1333688,10.0590007 C17.1270724,12.4507448 14.0711321,16.2495943 12.6594348,20.7662478 C12.6534634,20.7853532 12.6469217,20.8054474 12.6398097,20.8265305 L12.639833,20.8265383 C12.5588247,21.0666835 12.2984785,21.1956895 12.0583333,21.1146812 C11.918716,21.0675841 11.8102063,20.9563088 11.7666372,20.8155507 C11.7666372,20.8155507 11.7666372,20.8155507 11.7666372,20.8155507 C10.329566,16.1728213 7.15660284,12.2841924 2.99925088,9.8952785 C2.99165857,9.89091577 2.98206198,9.88550487 2.97046112,9.87904579 L2.97047279,9.87902481 C2.41538549,9.56996551 2.21594039,8.86943628 2.52499969,8.31434897 C2.52752312,8.30981675 2.53007718,8.30530166 2.53266169,8.30080399 C2.53266169,8.30080399 2.53266169,8.30080399 2.53266169,8.30080399 C3.94012072,5.85148684 6.28964776,4.00420696 9.09173772,3.24462563 C9.09173772,3.24462563 9.09173772,3.24462563 9.09173772,3.24462563 C9.67373074,3.08686088 10.2921534,3.31105259 10.6378423,3.80512224 Z" id="路径"></path>
        </g>
    </g>
</svg>